%TF.GenerationSoftware,KiCad,Pcbnew,9.0.6*%
%TF.CreationDate,2026-06-03T06:54:15-04:00*%
%TF.ProjectId,2025-2026 A.R.I.E.S. PCB Design (FR this time),32303235-2d32-4303-9236-20412e522e49,rev?*%
%TF.SameCoordinates,Original*%
%TF.FileFunction,Paste,Top*%
%TF.FilePolarity,Positive*%
%FSLAX46Y46*%
G04 Gerber Fmt 4.6, Leading zero omitted, Abs format (unit mm)*
G04 Created by KiCad (PCBNEW 9.0.6) date 2026-06-03 06:54:15*
%MOMM*%
%LPD*%
G01*
G04 APERTURE LIST*
G04 Aperture macros list*
%AMRoundRect*
0 Rectangle with rounded corners*
0 $1 Rounding radius*
0 $2 $3 $4 $5 $6 $7 $8 $9 X,Y pos of 4 corners*
0 Add a 4 corners polygon primitive as box body*
4,1,4,$2,$3,$4,$5,$6,$7,$8,$9,$2,$3,0*
0 Add four circle primitives for the rounded corners*
1,1,$1+$1,$2,$3*
1,1,$1+$1,$4,$5*
1,1,$1+$1,$6,$7*
1,1,$1+$1,$8,$9*
0 Add four rect primitives between the rounded corners*
20,1,$1+$1,$2,$3,$4,$5,0*
20,1,$1+$1,$4,$5,$6,$7,0*
20,1,$1+$1,$6,$7,$8,$9,0*
20,1,$1+$1,$8,$9,$2,$3,0*%
G04 Aperture macros list end*
%ADD10RoundRect,0.250000X-0.250000X-0.475000X0.250000X-0.475000X0.250000X0.475000X-0.250000X0.475000X0*%
%ADD11RoundRect,0.243750X-0.456250X0.243750X-0.456250X-0.243750X0.456250X-0.243750X0.456250X0.243750X0*%
%ADD12RoundRect,0.243750X0.243750X0.456250X-0.243750X0.456250X-0.243750X-0.456250X0.243750X-0.456250X0*%
%ADD13RoundRect,0.250000X0.475000X-0.250000X0.475000X0.250000X-0.475000X0.250000X-0.475000X-0.250000X0*%
%ADD14RoundRect,0.250000X-0.475000X0.250000X-0.475000X-0.250000X0.475000X-0.250000X0.475000X0.250000X0*%
%ADD15RoundRect,0.250000X0.262500X0.450000X-0.262500X0.450000X-0.262500X-0.450000X0.262500X-0.450000X0*%
%ADD16RoundRect,0.250000X-0.262500X-0.450000X0.262500X-0.450000X0.262500X0.450000X-0.262500X0.450000X0*%
%ADD17RoundRect,0.250000X-0.450000X0.262500X-0.450000X-0.262500X0.450000X-0.262500X0.450000X0.262500X0*%
G04 APERTURE END LIST*
D10*
%TO.C,C12*%
X192550000Y-129400000D03*
X194450000Y-129400000D03*
%TD*%
%TO.C,C3*%
X192550000Y-131500000D03*
X194450000Y-131500000D03*
%TD*%
%TO.C,C12*%
X182050000Y-129900000D03*
X183950000Y-129900000D03*
%TD*%
%TO.C,C3*%
X182050000Y-132000000D03*
X183950000Y-132000000D03*
%TD*%
%TO.C,C3*%
X115700000Y-132200000D03*
X117600000Y-132200000D03*
%TD*%
%TO.C,C3*%
X157060000Y-86400000D03*
X158960000Y-86400000D03*
%TD*%
%TO.C,C3*%
X130860000Y-82800000D03*
X132760000Y-82800000D03*
%TD*%
%TO.C,C12*%
X137600000Y-130100000D03*
X139500000Y-130100000D03*
%TD*%
%TO.C,C12*%
X171700000Y-130100000D03*
X173600000Y-130100000D03*
%TD*%
%TO.C,C12*%
X160100000Y-130100000D03*
X162000000Y-130100000D03*
%TD*%
D11*
%TO.C,D3*%
X128000000Y-94125000D03*
X128000000Y-96000000D03*
%TD*%
D12*
%TO.C,D2*%
X103587500Y-113500000D03*
X101712500Y-113500000D03*
%TD*%
D10*
%TO.C,C3*%
X104600000Y-132200000D03*
X106500000Y-132200000D03*
%TD*%
D12*
%TO.C,D1*%
X105875000Y-91000000D03*
X104000000Y-91000000D03*
%TD*%
D13*
%TO.C,C7*%
X120000000Y-99500000D03*
X120000000Y-97600000D03*
%TD*%
D10*
%TO.C,C3*%
X148600000Y-132200000D03*
X150500000Y-132200000D03*
%TD*%
%TO.C,C12*%
X104600000Y-130100000D03*
X106500000Y-130100000D03*
%TD*%
%TO.C,C12*%
X115700000Y-130100000D03*
X117600000Y-130100000D03*
%TD*%
D14*
%TO.C,C14*%
X106400000Y-99500000D03*
X106400000Y-101400000D03*
%TD*%
D10*
%TO.C,C3*%
X136000000Y-89800000D03*
X137900000Y-89800000D03*
%TD*%
%TO.C,C12*%
X148600000Y-130100000D03*
X150500000Y-130100000D03*
%TD*%
%TO.C,C3*%
X137600000Y-132200000D03*
X139500000Y-132200000D03*
%TD*%
D14*
%TO.C,C3*%
X124650000Y-89300000D03*
X124650000Y-91200000D03*
%TD*%
D10*
%TO.C,C12*%
X127100000Y-130100000D03*
X129000000Y-130100000D03*
%TD*%
D15*
%TO.C,R2*%
X99412500Y-113500000D03*
X97587500Y-113500000D03*
%TD*%
D14*
%TO.C,C7*%
X109200000Y-99500000D03*
X109200000Y-101400000D03*
%TD*%
D10*
%TO.C,C3*%
X127100000Y-132200000D03*
X129000000Y-132200000D03*
%TD*%
D13*
%TO.C,C14*%
X117000000Y-98950000D03*
X117000000Y-97050000D03*
%TD*%
D10*
%TO.C,C3*%
X160100000Y-132200000D03*
X162000000Y-132200000D03*
%TD*%
D16*
%TO.C,R1*%
X100335000Y-91000000D03*
X102160000Y-91000000D03*
%TD*%
D15*
%TO.C,R4*%
X156500000Y-99800000D03*
X154675000Y-99800000D03*
%TD*%
D10*
%TO.C,C3*%
X171700000Y-132200000D03*
X173600000Y-132200000D03*
%TD*%
D17*
%TO.C,R3*%
X128000000Y-98087500D03*
X128000000Y-99912500D03*
%TD*%
D16*
%TO.C,R5*%
X160800000Y-99800000D03*
X162625000Y-99800000D03*
%TD*%
M02*
