%TF.GenerationSoftware,KiCad,Pcbnew,9.0.6*%
%TF.CreationDate,2026-06-03T06:54:15-04:00*%
%TF.ProjectId,2025-2026 A.R.I.E.S. PCB Design (FR this time),32303235-2d32-4303-9236-20412e522e49,rev?*%
%TF.SameCoordinates,Original*%
%TF.FileFunction,Soldermask,Bot*%
%TF.FilePolarity,Negative*%
%FSLAX46Y46*%
G04 Gerber Fmt 4.6, Leading zero omitted, Abs format (unit mm)*
G04 Created by KiCad (PCBNEW 9.0.6) date 2026-06-03 06:54:15*
%MOMM*%
%LPD*%
G01*
G04 APERTURE LIST*
G04 Aperture macros list*
%AMRoundRect*
0 Rectangle with rounded corners*
0 $1 Rounding radius*
0 $2 $3 $4 $5 $6 $7 $8 $9 X,Y pos of 4 corners*
0 Add a 4 corners polygon primitive as box body*
4,1,4,$2,$3,$4,$5,$6,$7,$8,$9,$2,$3,0*
0 Add four circle primitives for the rounded corners*
1,1,$1+$1,$2,$3*
1,1,$1+$1,$4,$5*
1,1,$1+$1,$6,$7*
1,1,$1+$1,$8,$9*
0 Add four rect primitives between the rounded corners*
20,1,$1+$1,$2,$3,$4,$5,0*
20,1,$1+$1,$4,$5,$6,$7,0*
20,1,$1+$1,$6,$7,$8,$9,0*
20,1,$1+$1,$8,$9,$2,$3,0*%
G04 Aperture macros list end*
%ADD10C,1.700000*%
%ADD11R,1.700000X1.700000*%
%ADD12RoundRect,1.500000X-1.500000X1.500000X-1.500000X-1.500000X1.500000X-1.500000X1.500000X1.500000X0*%
%ADD13C,6.000000*%
%ADD14RoundRect,0.250001X0.949999X0.949999X-0.949999X0.949999X-0.949999X-0.949999X0.949999X-0.949999X0*%
%ADD15C,2.400000*%
%ADD16RoundRect,0.101600X0.619000X0.619000X-0.619000X0.619000X-0.619000X-0.619000X0.619000X-0.619000X0*%
%ADD17C,1.441200*%
%ADD18C,1.511200*%
%ADD19C,1.461200*%
%ADD20C,1.411200*%
G04 APERTURE END LIST*
D10*
%TO.C,LALRN1*%
X184540000Y-135000000D03*
X182000000Y-135000000D03*
D11*
X179460000Y-135000000D03*
%TD*%
%TO.C,RALRN1*%
X189920000Y-134500000D03*
D10*
X192460000Y-134500000D03*
X195000000Y-134500000D03*
%TD*%
D12*
%TO.C,5V_EXT1*%
X93500000Y-83300000D03*
D13*
X93500000Y-90500000D03*
%TD*%
D11*
%TO.C,ESC2*%
X202000000Y-130000000D03*
D10*
X204540000Y-130000000D03*
X207080000Y-130000000D03*
%TD*%
D14*
%TO.C,C11*%
X101000000Y-122000000D03*
D15*
X96000000Y-122000000D03*
%TD*%
D12*
%TO.C,5V_FC1*%
X92500000Y-100400000D03*
D13*
X92500000Y-107600000D03*
%TD*%
D11*
%TO.C,FLSvo1*%
X101960000Y-135000000D03*
D10*
X104500000Y-135000000D03*
X107040000Y-135000000D03*
%TD*%
D11*
%TO.C,TailSvo1*%
X145920000Y-135000000D03*
D10*
X148460000Y-135000000D03*
X151000000Y-135000000D03*
%TD*%
D11*
%TO.C,MPU6050_Gyroscope1*%
X156920000Y-83500000D03*
D10*
X159460000Y-83500000D03*
X162000000Y-83500000D03*
X164540000Y-83500000D03*
X167080000Y-83500000D03*
X169620000Y-83500000D03*
X172160000Y-83500000D03*
X174700000Y-83500000D03*
%TD*%
D11*
%TO.C,ESC3*%
X202000000Y-125000000D03*
D10*
X204540000Y-125000000D03*
X207080000Y-125000000D03*
%TD*%
D11*
%TO.C,FRSvo1*%
X112920000Y-135000000D03*
D10*
X115460000Y-135000000D03*
X118000000Y-135000000D03*
%TD*%
D11*
%TO.C,LRDVR1*%
X157500000Y-135000000D03*
D10*
X160040000Y-135000000D03*
X162580000Y-135000000D03*
%TD*%
D16*
%TO.C,MS4525DO_Speed_Sensor1*%
X110000000Y-84000000D03*
D17*
X110000000Y-86500000D03*
X110000000Y-89000000D03*
X110000000Y-91500000D03*
X122700000Y-91500000D03*
X122700000Y-89000000D03*
X122700000Y-86500000D03*
X122700000Y-84000000D03*
%TD*%
D18*
%TO.C,U1*%
X121820000Y-117540000D03*
X124360000Y-117540000D03*
X126900000Y-117540000D03*
X129440000Y-117540000D03*
X154840000Y-117540000D03*
X124360000Y-102300000D03*
X165000000Y-112460000D03*
X131980000Y-117540000D03*
X134520000Y-117540000D03*
D19*
X125630000Y-114490000D03*
D18*
X137060000Y-117540000D03*
X139600000Y-117540000D03*
X142140000Y-117540000D03*
X144680000Y-117540000D03*
X147220000Y-117540000D03*
X149760000Y-117540000D03*
X152300000Y-117540000D03*
X152300000Y-102300000D03*
X149760000Y-102300000D03*
X147220000Y-102300000D03*
X144680000Y-102300000D03*
X142140000Y-102300000D03*
X139600000Y-102300000D03*
X137060000Y-102300000D03*
X134520000Y-102300000D03*
X131980000Y-102300000D03*
X129440000Y-102300000D03*
X126900000Y-102300000D03*
X157380000Y-117540000D03*
X159920000Y-117540000D03*
X162460000Y-117540000D03*
X165000000Y-117540000D03*
X167540000Y-117540000D03*
X170080000Y-117540000D03*
X172620000Y-117540000D03*
X175160000Y-117540000D03*
X177700000Y-117540000D03*
X177700000Y-102300000D03*
X175160000Y-102300000D03*
X172620000Y-102300000D03*
X170080000Y-102300000D03*
X167540000Y-102300000D03*
X165000000Y-102300000D03*
X162460000Y-102300000D03*
X159920000Y-102300000D03*
X157380000Y-102300000D03*
D19*
X130710000Y-114490000D03*
X128170000Y-114490000D03*
D18*
X119280000Y-117540000D03*
X154840000Y-102300000D03*
X121820000Y-102300000D03*
X165000000Y-109920000D03*
D20*
X134250000Y-106750000D03*
X132250000Y-106750000D03*
D18*
X165000000Y-104840000D03*
X165000000Y-107380000D03*
D20*
X132250000Y-104750000D03*
X134250000Y-104750000D03*
X134250000Y-108750000D03*
X132250000Y-108750000D03*
D19*
X133250000Y-114490000D03*
X135790000Y-114490000D03*
D18*
X165000000Y-115000000D03*
X119280000Y-102300000D03*
X121820000Y-104840000D03*
%TD*%
D11*
%TO.C,Radio_Receiver1*%
X112000000Y-104540000D03*
D10*
X112000000Y-102000000D03*
X112000000Y-99460000D03*
%TD*%
D11*
%TO.C,BRSvo1*%
X134920000Y-135000000D03*
D10*
X137460000Y-135000000D03*
X140000000Y-135000000D03*
%TD*%
D11*
%TO.C,GY-273_Magnometer1*%
X130380000Y-80000000D03*
D10*
X132920000Y-80000000D03*
X135460000Y-80000000D03*
X138000000Y-80000000D03*
X140540000Y-80000000D03*
%TD*%
D11*
%TO.C,BLSvo1*%
X124460000Y-135000000D03*
D10*
X127000000Y-135000000D03*
X129540000Y-135000000D03*
%TD*%
D11*
%TO.C,GY-NEO6MV2_GPS_Module1*%
X136220000Y-92570000D03*
D10*
X138760000Y-92570000D03*
X141300000Y-92570000D03*
X143840000Y-92570000D03*
%TD*%
D11*
%TO.C,ESC1*%
X202000000Y-135000000D03*
D10*
X204540000Y-135000000D03*
X207080000Y-135000000D03*
%TD*%
D11*
%TO.C,RRDVR1*%
X169000000Y-135000000D03*
D10*
X171540000Y-135000000D03*
X174080000Y-135000000D03*
%TD*%
M02*
