%TF.GenerationSoftware,KiCad,Pcbnew,9.0.6*%
%TF.CreationDate,2026-06-03T06:54:15-04:00*%
%TF.ProjectId,2025-2026 A.R.I.E.S. PCB Design (FR this time),32303235-2d32-4303-9236-20412e522e49,rev?*%
%TF.SameCoordinates,Original*%
%TF.FileFunction,Copper,L4,Bot*%
%TF.FilePolarity,Positive*%
%FSLAX46Y46*%
G04 Gerber Fmt 4.6, Leading zero omitted, Abs format (unit mm)*
G04 Created by KiCad (PCBNEW 9.0.6) date 2026-06-03 06:54:15*
%MOMM*%
%LPD*%
G01*
G04 APERTURE LIST*
G04 Aperture macros list*
%AMRoundRect*
0 Rectangle with rounded corners*
0 $1 Rounding radius*
0 $2 $3 $4 $5 $6 $7 $8 $9 X,Y pos of 4 corners*
0 Add a 4 corners polygon primitive as box body*
4,1,4,$2,$3,$4,$5,$6,$7,$8,$9,$2,$3,0*
0 Add four circle primitives for the rounded corners*
1,1,$1+$1,$2,$3*
1,1,$1+$1,$4,$5*
1,1,$1+$1,$6,$7*
1,1,$1+$1,$8,$9*
0 Add four rect primitives between the rounded corners*
20,1,$1+$1,$2,$3,$4,$5,0*
20,1,$1+$1,$4,$5,$6,$7,0*
20,1,$1+$1,$6,$7,$8,$9,0*
20,1,$1+$1,$8,$9,$2,$3,0*%
G04 Aperture macros list end*
%TA.AperFunction,ComponentPad*%
%ADD10C,1.700000*%
%TD*%
%TA.AperFunction,ComponentPad*%
%ADD11R,1.700000X1.700000*%
%TD*%
%TA.AperFunction,ComponentPad*%
%ADD12RoundRect,1.500000X-1.500000X1.500000X-1.500000X-1.500000X1.500000X-1.500000X1.500000X1.500000X0*%
%TD*%
%TA.AperFunction,ComponentPad*%
%ADD13C,6.000000*%
%TD*%
%TA.AperFunction,ComponentPad*%
%ADD14RoundRect,0.250001X0.949999X0.949999X-0.949999X0.949999X-0.949999X-0.949999X0.949999X-0.949999X0*%
%TD*%
%TA.AperFunction,ComponentPad*%
%ADD15C,2.400000*%
%TD*%
%TA.AperFunction,ComponentPad*%
%ADD16R,1.238000X1.238000*%
%TD*%
%TA.AperFunction,ComponentPad*%
%ADD17C,1.238000*%
%TD*%
%TA.AperFunction,ComponentPad*%
%ADD18C,1.308000*%
%TD*%
%TA.AperFunction,ComponentPad*%
%ADD19C,1.258000*%
%TD*%
%TA.AperFunction,ComponentPad*%
%ADD20C,1.208000*%
%TD*%
%TA.AperFunction,ViaPad*%
%ADD21C,0.889000*%
%TD*%
%TA.AperFunction,ViaPad*%
%ADD22C,0.685800*%
%TD*%
%TA.AperFunction,Conductor*%
%ADD23C,0.254000*%
%TD*%
G04 APERTURE END LIST*
D10*
%TO.P,LALRN1,3*%
%TO.N,GND*%
X184540000Y-135000000D03*
%TO.P,LALRN1,2*%
%TO.N,5V_EXT*%
X182000000Y-135000000D03*
D11*
%TO.P,LALRN1,1*%
%TO.N,Net-(U1-7_RX2_OUT1A)*%
X179460000Y-135000000D03*
%TD*%
%TO.P,RALRN1,1*%
%TO.N,Net-(U1-8_TX2_IN1)*%
X189920000Y-134500000D03*
D10*
%TO.P,RALRN1,2*%
%TO.N,5V_EXT*%
X192460000Y-134500000D03*
%TO.P,RALRN1,3*%
%TO.N,GND*%
X195000000Y-134500000D03*
%TD*%
D12*
%TO.P,5V_EXT1,1*%
%TO.N,N/C*%
X93500000Y-83300000D03*
D13*
%TO.P,5V_EXT1,2*%
X93500000Y-90500000D03*
%TD*%
D11*
%TO.P,ESC2,1*%
%TO.N,Net-(U1-10_CS_MQSR)*%
X202000000Y-130000000D03*
D10*
%TO.P,ESC2,2*%
%TO.N,N/C*%
X204540000Y-130000000D03*
%TO.P,ESC2,3*%
%TO.N,unconnected-(ESC1-Pad3)*%
X207080000Y-130000000D03*
%TD*%
D14*
%TO.P,C11,1*%
%TO.N,5V_EXT*%
X101000000Y-122000000D03*
D15*
%TO.P,C11,2*%
%TO.N,GND*%
X96000000Y-122000000D03*
%TD*%
D12*
%TO.P,5V_FC1,1*%
%TO.N,N/C*%
X92500000Y-100400000D03*
D13*
%TO.P,5V_FC1,2*%
X92500000Y-107600000D03*
%TD*%
D11*
%TO.P,FLSvo1,1*%
%TO.N,Net-(U1-0_RX1_CRX2_CS1)*%
X101960000Y-135000000D03*
D10*
%TO.P,FLSvo1,2*%
%TO.N,5V_EXT*%
X104500000Y-135000000D03*
%TO.P,FLSvo1,3*%
%TO.N,GND*%
X107040000Y-135000000D03*
%TD*%
D11*
%TO.P,TailSvo1,1*%
%TO.N,Net-(U1-4_BCLK2)*%
X145920000Y-135000000D03*
D10*
%TO.P,TailSvo1,2*%
%TO.N,5V_EXT*%
X148460000Y-135000000D03*
%TO.P,TailSvo1,3*%
%TO.N,GND*%
X151000000Y-135000000D03*
%TD*%
D11*
%TO.P,MPU6050_Gyroscope1,1*%
%TO.N,3V3 Rail*%
X156920000Y-83500000D03*
D10*
%TO.P,MPU6050_Gyroscope1,2*%
X159460000Y-83500000D03*
%TO.P,MPU6050_Gyroscope1,3*%
%TO.N,/SCL*%
X162000000Y-83500000D03*
%TO.P,MPU6050_Gyroscope1,4*%
%TO.N,/SDA*%
X164540000Y-83500000D03*
%TO.P,MPU6050_Gyroscope1,5*%
%TO.N,unconnected-(MPU6050_Gyroscope1-Pad5)*%
X167080000Y-83500000D03*
%TO.P,MPU6050_Gyroscope1,6*%
%TO.N,unconnected-(MPU6050_Gyroscope1-Pad6)*%
X169620000Y-83500000D03*
%TO.P,MPU6050_Gyroscope1,7*%
%TO.N,unconnected-(MPU6050_Gyroscope1-Pad7)*%
X172160000Y-83500000D03*
%TO.P,MPU6050_Gyroscope1,8*%
%TO.N,unconnected-(MPU6050_Gyroscope1-Pad8)*%
X174700000Y-83500000D03*
%TD*%
D11*
%TO.P,ESC3,1*%
%TO.N,Net-(U1-11_MOSI_CTX1)*%
X202000000Y-125000000D03*
D10*
%TO.P,ESC3,2*%
%TO.N,N/C*%
X204540000Y-125000000D03*
%TO.P,ESC3,3*%
%TO.N,unconnected-(ESC2-Pad3)*%
X207080000Y-125000000D03*
%TD*%
D11*
%TO.P,FRSvo1,1*%
%TO.N,Net-(U1-1_TX1_CTX2_MISO1)*%
X112920000Y-135000000D03*
D10*
%TO.P,FRSvo1,2*%
%TO.N,5V_EXT*%
X115460000Y-135000000D03*
%TO.P,FRSvo1,3*%
%TO.N,GND*%
X118000000Y-135000000D03*
%TD*%
D11*
%TO.P,LRDVR1,1*%
%TO.N,Net-(U1-5_IN2)*%
X157500000Y-135000000D03*
D10*
%TO.P,LRDVR1,2*%
%TO.N,5V_EXT*%
X160040000Y-135000000D03*
%TO.P,LRDVR1,3*%
%TO.N,GND*%
X162580000Y-135000000D03*
%TD*%
D16*
%TO.P,MS4525DO_Speed_Sensor1,1,P1*%
%TO.N,unconnected-(MS4525DO_Speed_Sensor1-P1-Pad1)*%
X110000000Y-84000000D03*
D17*
%TO.P,MS4525DO_Speed_Sensor1,2,P2*%
%TO.N,3V3 Rail*%
X110000000Y-86500000D03*
%TO.P,MS4525DO_Speed_Sensor1,3,P3*%
%TO.N,unconnected-(MS4525DO_Speed_Sensor1-P3-Pad3)*%
X110000000Y-89000000D03*
%TO.P,MS4525DO_Speed_Sensor1,4,P4*%
%TO.N,3V3 Rail*%
X110000000Y-91500000D03*
%TO.P,MS4525DO_Speed_Sensor1,5,P5*%
%TO.N,unconnected-(MS4525DO_Speed_Sensor1-P5-Pad5)*%
X122700000Y-91500000D03*
%TO.P,MS4525DO_Speed_Sensor1,6,P6*%
%TO.N,/SCL*%
X122700000Y-89000000D03*
%TO.P,MS4525DO_Speed_Sensor1,7,P7*%
%TO.N,unconnected-(MS4525DO_Speed_Sensor1-P7-Pad7)*%
X122700000Y-86500000D03*
%TO.P,MS4525DO_Speed_Sensor1,8,P8*%
%TO.N,/SDA*%
X122700000Y-84000000D03*
%TD*%
D18*
%TO.P,U1,0*%
%TO.N,N/C*%
X121820000Y-117540000D03*
%TO.P,U1,1,GND*%
%TO.N,3V3 Rail*%
X124360000Y-117540000D03*
%TO.P,U1,2,0_RX1_CRX2_CS1*%
%TO.N,Net-(U1-0_RX1_CRX2_CS1)*%
X126900000Y-117540000D03*
%TO.P,U1,3,1_TX1_CTX2_MISO1*%
%TO.N,Net-(U1-1_TX1_CTX2_MISO1)*%
X129440000Y-117540000D03*
%TO.P,U1,3.3V_1*%
%TO.N,N/C*%
X154840000Y-117540000D03*
%TO.P,U1,3.3V_2*%
X124360000Y-102300000D03*
%TO.P,U1,3.3V_3*%
X165000000Y-112460000D03*
%TO.P,U1,4,2_OUT2*%
%TO.N,Net-(U1-2_OUT2)*%
X131980000Y-117540000D03*
%TO.P,U1,5,3_LRCLK2*%
%TO.N,Net-(U1-3_LRCLK2)*%
X134520000Y-117540000D03*
D19*
%TO.P,U1,5V*%
%TO.N,N/C*%
X125630000Y-114490000D03*
D18*
%TO.P,U1,6,4_BCLK2*%
%TO.N,Net-(U1-4_BCLK2)*%
X137060000Y-117540000D03*
%TO.P,U1,7,5_IN2*%
%TO.N,Net-(U1-5_IN2)*%
X139600000Y-117540000D03*
%TO.P,U1,8,6_OUT1D*%
%TO.N,Net-(U1-6_OUT1D)*%
X142140000Y-117540000D03*
%TO.P,U1,9,7_RX2_OUT1A*%
%TO.N,Net-(U1-7_RX2_OUT1A)*%
X144680000Y-117540000D03*
%TO.P,U1,10,8_TX2_IN1*%
%TO.N,Net-(U1-8_TX2_IN1)*%
X147220000Y-117540000D03*
%TO.P,U1,11,9_OUT1C*%
%TO.N,Net-(U1-9_OUT1C)*%
X149760000Y-117540000D03*
%TO.P,U1,12,10_CS_MQSR*%
%TO.N,Net-(U1-10_CS_MQSR)*%
X152300000Y-117540000D03*
%TO.P,U1,13,11_MOSI_CTX1*%
%TO.N,Net-(U1-11_MOSI_CTX1)*%
X152300000Y-102300000D03*
%TO.P,U1,14,12_MISO_MQSL*%
%TO.N,unconnected-(U1-12_MISO_MQSL-Pad14)*%
X149760000Y-102300000D03*
%TO.P,U1,15,3V3*%
%TO.N,unconnected-(U1-3V3-Pad15)*%
X147220000Y-102300000D03*
%TO.P,U1,16,24_A10_TX6_SCL2*%
%TO.N,unconnected-(U1-24_A10_TX6_SCL2-Pad16)*%
X144680000Y-102300000D03*
%TO.P,U1,17,25_A11_RX6_SDA2*%
%TO.N,unconnected-(U1-25_A11_RX6_SDA2-Pad17)*%
X142140000Y-102300000D03*
%TO.P,U1,18,26_A12_MOSI1*%
%TO.N,unconnected-(U1-26_A12_MOSI1-Pad18)*%
X139600000Y-102300000D03*
%TO.P,U1,19,27_A13_SCK1*%
%TO.N,unconnected-(U1-27_A13_SCK1-Pad19)*%
X137060000Y-102300000D03*
%TO.P,U1,20,28_RX7*%
%TO.N,Net-(U1-41_A17)*%
X134520000Y-102300000D03*
%TO.P,U1,21,29_TX7*%
%TO.N,unconnected-(U1-29_TX7-Pad21)*%
X131980000Y-102300000D03*
%TO.P,U1,22,30_CRX3*%
%TO.N,unconnected-(U1-30_CRX3-Pad22)*%
X129440000Y-102300000D03*
%TO.P,U1,23,31_CTX3*%
%TO.N,unconnected-(U1-31_CTX3-Pad23)*%
X126900000Y-102300000D03*
%TO.P,U1,24,32_OUT1B*%
%TO.N,Net-(U1-11_MOSI_CTX1)*%
X157380000Y-117540000D03*
%TO.P,U1,25,33_MCLK2*%
%TO.N,unconnected-(U1-33_MCLK2-Pad25)*%
X159920000Y-117540000D03*
%TO.P,U1,26,34_RX8*%
%TO.N,unconnected-(U1-34_RX8-Pad26)*%
X162460000Y-117540000D03*
%TO.P,U1,27,35_TX8*%
%TO.N,unconnected-(U1-35_TX8-Pad27)*%
X165000000Y-117540000D03*
%TO.P,U1,28,36_CS*%
%TO.N,unconnected-(U1-36_CS-Pad28)*%
X167540000Y-117540000D03*
%TO.P,U1,29,37_CS*%
%TO.N,unconnected-(U1-37_CS-Pad29)*%
X170080000Y-117540000D03*
%TO.P,U1,30,38_CS1_IN1*%
%TO.N,unconnected-(U1-38_CS1_IN1-Pad30)*%
X172620000Y-117540000D03*
%TO.P,U1,31,39_MISO1_OUT1A*%
%TO.N,unconnected-(U1-39_MISO1_OUT1A-Pad31)*%
X175160000Y-117540000D03*
%TO.P,U1,32,40_A16*%
%TO.N,unconnected-(U1-40_A16-Pad32)*%
X177700000Y-117540000D03*
%TO.P,U1,33,41_A17*%
%TO.N,Net-(U1-41_A17)*%
X177700000Y-102300000D03*
%TO.P,U1,34,GND*%
%TO.N,3V3 Rail*%
X175160000Y-102300000D03*
%TO.P,U1,35,13_SCK_LED*%
%TO.N,unconnected-(U1-13_SCK_LED-Pad35)*%
X172620000Y-102300000D03*
%TO.P,U1,36,14_A0_TX3_SPDIF_OUT*%
%TO.N,unconnected-(U1-14_A0_TX3_SPDIF_OUT-Pad36)*%
X170080000Y-102300000D03*
%TO.P,U1,37,15_A1_RX3_SPDIF_IN*%
%TO.N,unconnected-(U1-15_A1_RX3_SPDIF_IN-Pad37)*%
X167540000Y-102300000D03*
%TO.P,U1,38,16_A2_RX4_SCL1*%
%TO.N,unconnected-(U1-16_A2_RX4_SCL1-Pad38)*%
X165000000Y-102300000D03*
%TO.P,U1,39,17_A3_TX4_SDA1*%
%TO.N,unconnected-(U1-17_A3_TX4_SDA1-Pad39)*%
X162460000Y-102300000D03*
%TO.P,U1,40,18_A4_SDA*%
%TO.N,/SDA*%
X159920000Y-102300000D03*
%TO.P,U1,41,19_A5_SCL*%
%TO.N,/SCL*%
X157380000Y-102300000D03*
D19*
%TO.P,U1,D+*%
%TO.N,N/C*%
X130710000Y-114490000D03*
%TO.P,U1,D-*%
X128170000Y-114490000D03*
D18*
%TO.P,U1,GND1*%
X119280000Y-117540000D03*
%TO.P,U1,GND2*%
X154840000Y-102300000D03*
%TO.P,U1,GND3*%
X121820000Y-102300000D03*
%TO.P,U1,GND4*%
X165000000Y-109920000D03*
D20*
%TO.P,U1,GND5*%
X134250000Y-106750000D03*
%TO.P,U1,LED*%
X132250000Y-106750000D03*
D18*
%TO.P,U1,ON/OFF*%
X165000000Y-104840000D03*
%TO.P,U1,PROGRAM*%
X165000000Y-107380000D03*
D20*
%TO.P,U1,R+*%
X132250000Y-104750000D03*
%TO.P,U1,R-*%
X134250000Y-104750000D03*
%TO.P,U1,T+*%
X134250000Y-108750000D03*
%TO.P,U1,T-*%
X132250000Y-108750000D03*
D19*
%TO.P,U1,USB_GND1*%
X133250000Y-114490000D03*
%TO.P,U1,USB_GND2*%
X135790000Y-114490000D03*
D18*
%TO.P,U1,VBAT*%
X165000000Y-115000000D03*
%TO.P,U1,VIN*%
X119280000Y-102300000D03*
%TO.P,U1,VUSB*%
X121820000Y-104840000D03*
%TD*%
D11*
%TO.P,Radio_Receiver1,1*%
%TO.N,Net-(U1-41_A17)*%
X112000000Y-104540000D03*
D10*
%TO.P,Radio_Receiver1,2*%
%TO.N,3V3 Rail*%
X112000000Y-102000000D03*
%TO.P,Radio_Receiver1,3*%
%TO.N,5V_FC*%
X112000000Y-99460000D03*
%TD*%
D11*
%TO.P,BRSvo1,1*%
%TO.N,Net-(U1-3_LRCLK2)*%
X134920000Y-135000000D03*
D10*
%TO.P,BRSvo1,2*%
%TO.N,5V_EXT*%
X137460000Y-135000000D03*
%TO.P,BRSvo1,3*%
%TO.N,GND*%
X140000000Y-135000000D03*
%TD*%
D11*
%TO.P,GY-273_Magnometer1,1*%
%TO.N,3V3 Rail*%
X130380000Y-80000000D03*
D10*
%TO.P,GY-273_Magnometer1,2*%
X132920000Y-80000000D03*
%TO.P,GY-273_Magnometer1,3*%
%TO.N,/SCL*%
X135460000Y-80000000D03*
%TO.P,GY-273_Magnometer1,4*%
%TO.N,/SDA*%
X138000000Y-80000000D03*
%TO.P,GY-273_Magnometer1,5*%
%TO.N,unconnected-(GY-273_Magnometer1-Pad5)*%
X140540000Y-80000000D03*
%TD*%
D11*
%TO.P,BLSvo1,1*%
%TO.N,Net-(U1-2_OUT2)*%
X124460000Y-135000000D03*
D10*
%TO.P,BLSvo1,2*%
%TO.N,5V_EXT*%
X127000000Y-135000000D03*
%TO.P,BLSvo1,3*%
%TO.N,GND*%
X129540000Y-135000000D03*
%TD*%
D11*
%TO.P,GY-NEO6MV2_GPS_Module1,1*%
%TO.N,3V3 Rail*%
X136220000Y-92570000D03*
D10*
%TO.P,GY-NEO6MV2_GPS_Module1,2*%
%TO.N,/SCL*%
X138760000Y-92570000D03*
%TO.P,GY-NEO6MV2_GPS_Module1,3*%
%TO.N,/SDA*%
X141300000Y-92570000D03*
%TO.P,GY-NEO6MV2_GPS_Module1,4*%
%TO.N,3V3 Rail*%
X143840000Y-92570000D03*
%TD*%
D11*
%TO.P,ESC1,1*%
%TO.N,Net-(U1-9_OUT1C)*%
X202000000Y-135000000D03*
D10*
%TO.P,ESC1,2*%
%TO.N,N/C*%
X204540000Y-135000000D03*
%TO.P,ESC1,3*%
%TO.N,unconnected-(ESC3-Pad3)*%
X207080000Y-135000000D03*
%TD*%
D11*
%TO.P,RRDVR1,1*%
%TO.N,Net-(U1-6_OUT1D)*%
X169000000Y-135000000D03*
D10*
%TO.P,RRDVR1,2*%
%TO.N,5V_EXT*%
X171540000Y-135000000D03*
%TO.P,RRDVR1,3*%
%TO.N,GND*%
X174080000Y-135000000D03*
%TD*%
D21*
%TO.N,5V_EXT*%
X192550000Y-130450000D03*
%TO.N,GND*%
X194450000Y-130400000D03*
%TO.N,5V_EXT*%
X182050000Y-130950000D03*
%TO.N,GND*%
X183950000Y-130900000D03*
%TO.N,3V3 Rail*%
X132760000Y-84300000D03*
%TO.N,GND*%
X162000000Y-131100000D03*
X129000000Y-131100000D03*
D22*
%TO.N,3V3 Rail*%
X104000000Y-84000000D03*
D21*
X137900000Y-88300000D03*
%TO.N,GND*%
X115900000Y-97050000D03*
X106500000Y-131100000D03*
D22*
X105000000Y-113500000D03*
D21*
X118850000Y-97050000D03*
%TO.N,3V3 Rail*%
X158960000Y-87900000D03*
%TO.N,GND*%
X126150000Y-91200000D03*
X150500000Y-131100000D03*
%TO.N,3V3 Rail*%
X128000000Y-92500000D03*
%TO.N,GND*%
X173600000Y-131100000D03*
%TO.N,3V3 Rail*%
X107447500Y-91000000D03*
%TO.N,GND*%
X139500000Y-131100000D03*
D22*
%TO.N,3V3 Rail*%
X108100000Y-101400000D03*
X107500000Y-101500000D03*
D21*
%TO.N,GND*%
X117600000Y-131100000D03*
D22*
%TO.N,/SDA*%
X162500000Y-93500000D03*
X159920000Y-99900000D03*
%TO.N,/SCL*%
X156500000Y-95000000D03*
X157380000Y-99900000D03*
%TO.N,5V_FC*%
X108000000Y-99500000D03*
D21*
X120000000Y-100400000D03*
X115750000Y-99000000D03*
X99000000Y-93500000D03*
D22*
X107400000Y-99460000D03*
D21*
%TO.N,5V_EXT*%
X171700000Y-131150000D03*
X137600000Y-131150000D03*
X95725000Y-113600000D03*
X104600000Y-131150000D03*
X160100000Y-131150000D03*
X115700000Y-131150000D03*
X127100000Y-131150000D03*
X148600000Y-131150000D03*
%TO.N,3V3 Rail*%
X136000000Y-88400000D03*
X157060000Y-87900000D03*
D22*
X163400000Y-99800000D03*
X140500000Y-85040000D03*
X153900000Y-99800000D03*
D21*
X150000000Y-88000000D03*
X130860000Y-84300000D03*
X126150000Y-89300000D03*
D22*
X125000000Y-99000000D03*
D21*
X129000000Y-100100000D03*
%TD*%
D23*
%TO.N,/SDA*%
X139078000Y-81078000D02*
X138000000Y-80000000D01*
X159920000Y-102300000D02*
X159920000Y-99900000D01*
X164540000Y-92000000D02*
X164540000Y-83500000D01*
X122700000Y-84000000D02*
X124200000Y-85500000D01*
X159920000Y-96080000D02*
X163460000Y-92540000D01*
X140500000Y-91770000D02*
X141300000Y-92570000D01*
X140500000Y-87400000D02*
X140500000Y-91770000D01*
X163460000Y-92540000D02*
X164000000Y-92540000D01*
X164000000Y-92540000D02*
X164540000Y-92000000D01*
X164540000Y-83500000D02*
X162118000Y-81078000D01*
X136000000Y-78000000D02*
X128700000Y-78000000D01*
X138600000Y-85500000D02*
X140500000Y-87400000D01*
X124200000Y-85500000D02*
X138600000Y-85500000D01*
X128700000Y-78000000D02*
X122700000Y-84000000D01*
X159920000Y-99900000D02*
X159920000Y-96080000D01*
X162118000Y-81078000D02*
X139078000Y-81078000D01*
X138000000Y-80000000D02*
X136000000Y-78000000D01*
%TO.N,/SCL*%
X162000000Y-83500000D02*
X160922000Y-82422000D01*
X157000000Y-98000000D02*
X156000000Y-97000000D01*
X156000000Y-97000000D02*
X156000000Y-96000000D01*
X157380000Y-102300000D02*
X157380000Y-99900000D01*
X157380000Y-98380000D02*
X157000000Y-98000000D01*
X138760000Y-92570000D02*
X132690000Y-86500000D01*
X156000000Y-97000000D02*
X143190000Y-97000000D01*
X143190000Y-97000000D02*
X138760000Y-92570000D01*
X132690000Y-86500000D02*
X122700000Y-86500000D01*
X157380000Y-99900000D02*
X157380000Y-98380000D01*
X156000000Y-96000000D02*
X156000000Y-95500000D01*
X137882000Y-82422000D02*
X135460000Y-80000000D01*
X157460000Y-94000000D02*
X162000000Y-89460000D01*
X157460000Y-94040000D02*
X157460000Y-94000000D01*
X156000000Y-95500000D02*
X156500000Y-95000000D01*
X160922000Y-82422000D02*
X137882000Y-82422000D01*
X162000000Y-89460000D02*
X162000000Y-83500000D01*
X156500000Y-95000000D02*
X157460000Y-94040000D01*
%TD*%
M02*
