M48
; DRILL file {KiCad 9.0.6} date 2026-06-03T06:53:51-0400
; FORMAT={-:-/ absolute / metric / decimal}
; #@! TF.CreationDate,2026-06-03T06:53:51-04:00
; #@! TF.GenerationSoftware,Kicad,Pcbnew,9.0.6
; #@! TF.FileFunction,Plated,1,4,PTH
FMAT,2
METRIC
; #@! TA.AperFunction,Plated,PTH,ViaDrill
T1C0.330
; #@! TA.AperFunction,Plated,PTH,ViaDrill
T2C0.381
; #@! TA.AperFunction,Plated,PTH,ComponentDrill
T3C0.700
; #@! TA.AperFunction,Plated,PTH,ComponentDrill
T4C0.730
; #@! TA.AperFunction,Plated,PTH,ComponentDrill
T5C0.750
; #@! TA.AperFunction,Plated,PTH,ComponentDrill
T6C0.800
; #@! TA.AperFunction,Plated,PTH,ComponentDrill
T7C1.000
; #@! TA.AperFunction,Plated,PTH,ComponentDrill
T8C1.200
; #@! TA.AperFunction,Plated,PTH,ComponentDrill
T9C4.500
%
G90
G05
T1
X104.0Y-84.0
X105.0Y-113.5
X107.4Y-99.46
X107.5Y-101.5
X108.0Y-99.5
X108.1Y-101.4
X125.0Y-99.0
X140.5Y-85.04
X153.9Y-99.8
X156.5Y-95.0
X157.38Y-99.9
X159.92Y-99.9
X162.5Y-93.5
X163.4Y-99.8
T2
X95.725Y-113.6
X99.0Y-93.5
X104.6Y-131.15
X106.5Y-131.1
X107.447Y-91.0
X115.7Y-131.15
X115.75Y-99.0
X115.9Y-97.05
X117.6Y-131.1
X118.85Y-97.05
X120.0Y-100.4
X126.15Y-89.3
X126.15Y-91.2
X127.1Y-131.15
X128.0Y-92.5
X129.0Y-100.1
X129.0Y-131.1
X130.86Y-84.3
X132.76Y-84.3
X136.0Y-88.4
X137.6Y-131.15
X137.9Y-88.3
X139.5Y-131.1
X148.6Y-131.15
X150.0Y-88.0
X150.5Y-131.1
X157.06Y-87.9
X158.96Y-87.9
X160.1Y-131.15
X162.0Y-131.1
X171.7Y-131.15
X173.6Y-131.1
X182.05Y-130.95
X183.95Y-130.9
X192.55Y-130.45
X194.45Y-130.4
T3
X132.25Y-104.75
X132.25Y-106.75
X132.25Y-108.75
X134.25Y-104.75
X134.25Y-106.75
X134.25Y-108.75
T4
X110.0Y-84.0
X110.0Y-86.5
X110.0Y-89.0
X110.0Y-91.5
X122.7Y-84.0
X122.7Y-86.5
X122.7Y-89.0
X122.7Y-91.5
T5
X125.63Y-114.49
X128.17Y-114.49
X130.71Y-114.49
X133.25Y-114.49
X135.79Y-114.49
T6
X119.28Y-102.3
X119.28Y-117.54
X121.82Y-102.3
X121.82Y-104.84
X121.82Y-117.54
X124.36Y-102.3
X124.36Y-117.54
X126.9Y-102.3
X126.9Y-117.54
X129.44Y-102.3
X129.44Y-117.54
X131.98Y-102.3
X131.98Y-117.54
X134.52Y-102.3
X134.52Y-117.54
X137.06Y-102.3
X137.06Y-117.54
X139.6Y-102.3
X139.6Y-117.54
X142.14Y-102.3
X142.14Y-117.54
X144.68Y-102.3
X144.68Y-117.54
X147.22Y-102.3
X147.22Y-117.54
X149.76Y-102.3
X149.76Y-117.54
X152.3Y-102.3
X152.3Y-117.54
X154.84Y-102.3
X154.84Y-117.54
X157.38Y-102.3
X157.38Y-117.54
X159.92Y-102.3
X159.92Y-117.54
X162.46Y-102.3
X162.46Y-117.54
X165.0Y-102.3
X165.0Y-104.84
X165.0Y-107.38
X165.0Y-109.92
X165.0Y-112.46
X165.0Y-115.0
X165.0Y-117.54
X167.54Y-102.3
X167.54Y-117.54
X170.08Y-102.3
X170.08Y-117.54
X172.62Y-102.3
X172.62Y-117.54
X175.16Y-102.3
X175.16Y-117.54
X177.7Y-102.3
X177.7Y-117.54
T7
X101.96Y-135.0
X104.5Y-135.0
X107.04Y-135.0
X112.0Y-99.46
X112.0Y-102.0
X112.0Y-104.54
X112.92Y-135.0
X115.46Y-135.0
X118.0Y-135.0
X124.46Y-135.0
X127.0Y-135.0
X129.54Y-135.0
X130.38Y-80.0
X132.92Y-80.0
X134.92Y-135.0
X135.46Y-80.0
X136.22Y-92.57
X137.46Y-135.0
X138.0Y-80.0
X138.76Y-92.57
X140.0Y-135.0
X140.54Y-80.0
X141.3Y-92.57
X143.84Y-92.57
X145.92Y-135.0
X148.46Y-135.0
X151.0Y-135.0
X156.92Y-83.5
X157.5Y-135.0
X159.46Y-83.5
X160.04Y-135.0
X162.0Y-83.5
X162.58Y-135.0
X164.54Y-83.5
X167.08Y-83.5
X169.0Y-135.0
X169.62Y-83.5
X171.54Y-135.0
X172.16Y-83.5
X174.08Y-135.0
X174.7Y-83.5
X179.46Y-135.0
X182.0Y-135.0
X184.54Y-135.0
X189.92Y-134.5
X192.46Y-134.5
X195.0Y-134.5
X202.0Y-125.0
X202.0Y-130.0
X202.0Y-135.0
X204.54Y-125.0
X204.54Y-130.0
X204.54Y-135.0
X207.08Y-125.0
X207.08Y-130.0
X207.08Y-135.0
T8
X96.0Y-122.0
X101.0Y-122.0
T9
X92.5Y-100.4
X92.5Y-107.6
X93.5Y-83.3
X93.5Y-90.5
M30
