%TF.GenerationSoftware,KiCad,Pcbnew,9.0.6*%
%TF.CreationDate,2026-06-03T06:54:15-04:00*%
%TF.ProjectId,2025-2026 A.R.I.E.S. PCB Design (FR this time),32303235-2d32-4303-9236-20412e522e49,rev?*%
%TF.SameCoordinates,Original*%
%TF.FileFunction,Copper,L3,Inr*%
%TF.FilePolarity,Positive*%
%FSLAX46Y46*%
G04 Gerber Fmt 4.6, Leading zero omitted, Abs format (unit mm)*
G04 Created by KiCad (PCBNEW 9.0.6) date 2026-06-03 06:54:15*
%MOMM*%
%LPD*%
G01*
G04 APERTURE LIST*
G04 Aperture macros list*
%AMRoundRect*
0 Rectangle with rounded corners*
0 $1 Rounding radius*
0 $2 $3 $4 $5 $6 $7 $8 $9 X,Y pos of 4 corners*
0 Add a 4 corners polygon primitive as box body*
4,1,4,$2,$3,$4,$5,$6,$7,$8,$9,$2,$3,0*
0 Add four circle primitives for the rounded corners*
1,1,$1+$1,$2,$3*
1,1,$1+$1,$4,$5*
1,1,$1+$1,$6,$7*
1,1,$1+$1,$8,$9*
0 Add four rect primitives between the rounded corners*
20,1,$1+$1,$2,$3,$4,$5,0*
20,1,$1+$1,$4,$5,$6,$7,0*
20,1,$1+$1,$6,$7,$8,$9,0*
20,1,$1+$1,$8,$9,$2,$3,0*%
G04 Aperture macros list end*
%TA.AperFunction,ComponentPad*%
%ADD10C,1.700000*%
%TD*%
%TA.AperFunction,ComponentPad*%
%ADD11R,1.700000X1.700000*%
%TD*%
%TA.AperFunction,ComponentPad*%
%ADD12RoundRect,1.500000X-1.500000X1.500000X-1.500000X-1.500000X1.500000X-1.500000X1.500000X1.500000X0*%
%TD*%
%TA.AperFunction,ComponentPad*%
%ADD13C,6.000000*%
%TD*%
%TA.AperFunction,ComponentPad*%
%ADD14RoundRect,0.250001X0.949999X0.949999X-0.949999X0.949999X-0.949999X-0.949999X0.949999X-0.949999X0*%
%TD*%
%TA.AperFunction,ComponentPad*%
%ADD15C,2.400000*%
%TD*%
%TA.AperFunction,ComponentPad*%
%ADD16R,1.238000X1.238000*%
%TD*%
%TA.AperFunction,ComponentPad*%
%ADD17C,1.238000*%
%TD*%
%TA.AperFunction,ComponentPad*%
%ADD18C,1.308000*%
%TD*%
%TA.AperFunction,ComponentPad*%
%ADD19C,1.258000*%
%TD*%
%TA.AperFunction,ComponentPad*%
%ADD20C,1.208000*%
%TD*%
%TA.AperFunction,ViaPad*%
%ADD21C,0.889000*%
%TD*%
%TA.AperFunction,ViaPad*%
%ADD22C,0.685800*%
%TD*%
%TA.AperFunction,Conductor*%
%ADD23C,2.286000*%
%TD*%
%TA.AperFunction,Conductor*%
%ADD24C,2.159000*%
%TD*%
%TA.AperFunction,Conductor*%
%ADD25C,0.508000*%
%TD*%
G04 APERTURE END LIST*
D10*
%TO.N,GND*%
%TO.C,LALRN1*%
X184540000Y-135000000D03*
%TO.N,5V_EXT*%
X182000000Y-135000000D03*
D11*
%TO.N,Net-(U1-7_RX2_OUT1A)*%
X179460000Y-135000000D03*
%TD*%
%TO.N,Net-(U1-8_TX2_IN1)*%
%TO.C,RALRN1*%
X189920000Y-134500000D03*
D10*
%TO.N,5V_EXT*%
X192460000Y-134500000D03*
%TO.N,GND*%
X195000000Y-134500000D03*
%TD*%
D12*
%TO.N,N/C*%
%TO.C,5V_EXT1*%
X93500000Y-83300000D03*
D13*
X93500000Y-90500000D03*
%TD*%
D11*
%TO.N,Net-(U1-10_CS_MQSR)*%
%TO.C,ESC2*%
X202000000Y-130000000D03*
D10*
%TO.N,N/C*%
X204540000Y-130000000D03*
%TO.N,unconnected-(ESC1-Pad3)*%
X207080000Y-130000000D03*
%TD*%
D14*
%TO.N,5V_EXT*%
%TO.C,C11*%
X101000000Y-122000000D03*
D15*
%TO.N,GND*%
X96000000Y-122000000D03*
%TD*%
D12*
%TO.N,N/C*%
%TO.C,5V_FC1*%
X92500000Y-100400000D03*
D13*
X92500000Y-107600000D03*
%TD*%
D11*
%TO.N,Net-(U1-0_RX1_CRX2_CS1)*%
%TO.C,FLSvo1*%
X101960000Y-135000000D03*
D10*
%TO.N,5V_EXT*%
X104500000Y-135000000D03*
%TO.N,GND*%
X107040000Y-135000000D03*
%TD*%
D11*
%TO.N,Net-(U1-4_BCLK2)*%
%TO.C,TailSvo1*%
X145920000Y-135000000D03*
D10*
%TO.N,5V_EXT*%
X148460000Y-135000000D03*
%TO.N,GND*%
X151000000Y-135000000D03*
%TD*%
D11*
%TO.N,3V3 Rail*%
%TO.C,MPU6050_Gyroscope1*%
X156920000Y-83500000D03*
D10*
X159460000Y-83500000D03*
%TO.N,/SCL*%
X162000000Y-83500000D03*
%TO.N,/SDA*%
X164540000Y-83500000D03*
%TO.N,unconnected-(MPU6050_Gyroscope1-Pad5)*%
X167080000Y-83500000D03*
%TO.N,unconnected-(MPU6050_Gyroscope1-Pad6)*%
X169620000Y-83500000D03*
%TO.N,unconnected-(MPU6050_Gyroscope1-Pad7)*%
X172160000Y-83500000D03*
%TO.N,unconnected-(MPU6050_Gyroscope1-Pad8)*%
X174700000Y-83500000D03*
%TD*%
D11*
%TO.N,Net-(U1-11_MOSI_CTX1)*%
%TO.C,ESC3*%
X202000000Y-125000000D03*
D10*
%TO.N,N/C*%
X204540000Y-125000000D03*
%TO.N,unconnected-(ESC2-Pad3)*%
X207080000Y-125000000D03*
%TD*%
D11*
%TO.N,Net-(U1-1_TX1_CTX2_MISO1)*%
%TO.C,FRSvo1*%
X112920000Y-135000000D03*
D10*
%TO.N,5V_EXT*%
X115460000Y-135000000D03*
%TO.N,GND*%
X118000000Y-135000000D03*
%TD*%
D11*
%TO.N,Net-(U1-5_IN2)*%
%TO.C,LRDVR1*%
X157500000Y-135000000D03*
D10*
%TO.N,5V_EXT*%
X160040000Y-135000000D03*
%TO.N,GND*%
X162580000Y-135000000D03*
%TD*%
D16*
%TO.N,unconnected-(MS4525DO_Speed_Sensor1-P1-Pad1)*%
%TO.C,MS4525DO_Speed_Sensor1*%
X110000000Y-84000000D03*
D17*
%TO.N,3V3 Rail*%
X110000000Y-86500000D03*
%TO.N,unconnected-(MS4525DO_Speed_Sensor1-P3-Pad3)*%
X110000000Y-89000000D03*
%TO.N,3V3 Rail*%
X110000000Y-91500000D03*
%TO.N,unconnected-(MS4525DO_Speed_Sensor1-P5-Pad5)*%
X122700000Y-91500000D03*
%TO.N,/SCL*%
X122700000Y-89000000D03*
%TO.N,unconnected-(MS4525DO_Speed_Sensor1-P7-Pad7)*%
X122700000Y-86500000D03*
%TO.N,/SDA*%
X122700000Y-84000000D03*
%TD*%
D18*
%TO.N,N/C*%
%TO.C,U1*%
X121820000Y-117540000D03*
%TO.N,3V3 Rail*%
X124360000Y-117540000D03*
%TO.N,Net-(U1-0_RX1_CRX2_CS1)*%
X126900000Y-117540000D03*
%TO.N,Net-(U1-1_TX1_CTX2_MISO1)*%
X129440000Y-117540000D03*
%TO.N,N/C*%
X154840000Y-117540000D03*
X124360000Y-102300000D03*
X165000000Y-112460000D03*
%TO.N,Net-(U1-2_OUT2)*%
X131980000Y-117540000D03*
%TO.N,Net-(U1-3_LRCLK2)*%
X134520000Y-117540000D03*
D19*
%TO.N,N/C*%
X125630000Y-114490000D03*
D18*
%TO.N,Net-(U1-4_BCLK2)*%
X137060000Y-117540000D03*
%TO.N,Net-(U1-5_IN2)*%
X139600000Y-117540000D03*
%TO.N,Net-(U1-6_OUT1D)*%
X142140000Y-117540000D03*
%TO.N,Net-(U1-7_RX2_OUT1A)*%
X144680000Y-117540000D03*
%TO.N,Net-(U1-8_TX2_IN1)*%
X147220000Y-117540000D03*
%TO.N,Net-(U1-9_OUT1C)*%
X149760000Y-117540000D03*
%TO.N,Net-(U1-10_CS_MQSR)*%
X152300000Y-117540000D03*
%TO.N,Net-(U1-11_MOSI_CTX1)*%
X152300000Y-102300000D03*
%TO.N,unconnected-(U1-12_MISO_MQSL-Pad14)*%
X149760000Y-102300000D03*
%TO.N,unconnected-(U1-3V3-Pad15)*%
X147220000Y-102300000D03*
%TO.N,unconnected-(U1-24_A10_TX6_SCL2-Pad16)*%
X144680000Y-102300000D03*
%TO.N,unconnected-(U1-25_A11_RX6_SDA2-Pad17)*%
X142140000Y-102300000D03*
%TO.N,unconnected-(U1-26_A12_MOSI1-Pad18)*%
X139600000Y-102300000D03*
%TO.N,unconnected-(U1-27_A13_SCK1-Pad19)*%
X137060000Y-102300000D03*
%TO.N,Net-(U1-41_A17)*%
X134520000Y-102300000D03*
%TO.N,unconnected-(U1-29_TX7-Pad21)*%
X131980000Y-102300000D03*
%TO.N,unconnected-(U1-30_CRX3-Pad22)*%
X129440000Y-102300000D03*
%TO.N,unconnected-(U1-31_CTX3-Pad23)*%
X126900000Y-102300000D03*
%TO.N,Net-(U1-11_MOSI_CTX1)*%
X157380000Y-117540000D03*
%TO.N,unconnected-(U1-33_MCLK2-Pad25)*%
X159920000Y-117540000D03*
%TO.N,unconnected-(U1-34_RX8-Pad26)*%
X162460000Y-117540000D03*
%TO.N,unconnected-(U1-35_TX8-Pad27)*%
X165000000Y-117540000D03*
%TO.N,unconnected-(U1-36_CS-Pad28)*%
X167540000Y-117540000D03*
%TO.N,unconnected-(U1-37_CS-Pad29)*%
X170080000Y-117540000D03*
%TO.N,unconnected-(U1-38_CS1_IN1-Pad30)*%
X172620000Y-117540000D03*
%TO.N,unconnected-(U1-39_MISO1_OUT1A-Pad31)*%
X175160000Y-117540000D03*
%TO.N,unconnected-(U1-40_A16-Pad32)*%
X177700000Y-117540000D03*
%TO.N,Net-(U1-41_A17)*%
X177700000Y-102300000D03*
%TO.N,3V3 Rail*%
X175160000Y-102300000D03*
%TO.N,unconnected-(U1-13_SCK_LED-Pad35)*%
X172620000Y-102300000D03*
%TO.N,unconnected-(U1-14_A0_TX3_SPDIF_OUT-Pad36)*%
X170080000Y-102300000D03*
%TO.N,unconnected-(U1-15_A1_RX3_SPDIF_IN-Pad37)*%
X167540000Y-102300000D03*
%TO.N,unconnected-(U1-16_A2_RX4_SCL1-Pad38)*%
X165000000Y-102300000D03*
%TO.N,unconnected-(U1-17_A3_TX4_SDA1-Pad39)*%
X162460000Y-102300000D03*
%TO.N,/SDA*%
X159920000Y-102300000D03*
%TO.N,/SCL*%
X157380000Y-102300000D03*
D19*
%TO.N,N/C*%
X130710000Y-114490000D03*
X128170000Y-114490000D03*
D18*
X119280000Y-117540000D03*
X154840000Y-102300000D03*
X121820000Y-102300000D03*
X165000000Y-109920000D03*
D20*
X134250000Y-106750000D03*
X132250000Y-106750000D03*
D18*
X165000000Y-104840000D03*
X165000000Y-107380000D03*
D20*
X132250000Y-104750000D03*
X134250000Y-104750000D03*
X134250000Y-108750000D03*
X132250000Y-108750000D03*
D19*
X133250000Y-114490000D03*
X135790000Y-114490000D03*
D18*
X165000000Y-115000000D03*
X119280000Y-102300000D03*
X121820000Y-104840000D03*
%TD*%
D11*
%TO.N,Net-(U1-41_A17)*%
%TO.C,Radio_Receiver1*%
X112000000Y-104540000D03*
D10*
%TO.N,3V3 Rail*%
X112000000Y-102000000D03*
%TO.N,5V_FC*%
X112000000Y-99460000D03*
%TD*%
D11*
%TO.N,Net-(U1-3_LRCLK2)*%
%TO.C,BRSvo1*%
X134920000Y-135000000D03*
D10*
%TO.N,5V_EXT*%
X137460000Y-135000000D03*
%TO.N,GND*%
X140000000Y-135000000D03*
%TD*%
D11*
%TO.N,3V3 Rail*%
%TO.C,GY-273_Magnometer1*%
X130380000Y-80000000D03*
D10*
X132920000Y-80000000D03*
%TO.N,/SCL*%
X135460000Y-80000000D03*
%TO.N,/SDA*%
X138000000Y-80000000D03*
%TO.N,unconnected-(GY-273_Magnometer1-Pad5)*%
X140540000Y-80000000D03*
%TD*%
D11*
%TO.N,Net-(U1-2_OUT2)*%
%TO.C,BLSvo1*%
X124460000Y-135000000D03*
D10*
%TO.N,5V_EXT*%
X127000000Y-135000000D03*
%TO.N,GND*%
X129540000Y-135000000D03*
%TD*%
D11*
%TO.N,3V3 Rail*%
%TO.C,GY-NEO6MV2_GPS_Module1*%
X136220000Y-92570000D03*
D10*
%TO.N,/SCL*%
X138760000Y-92570000D03*
%TO.N,/SDA*%
X141300000Y-92570000D03*
%TO.N,3V3 Rail*%
X143840000Y-92570000D03*
%TD*%
D11*
%TO.N,Net-(U1-9_OUT1C)*%
%TO.C,ESC1*%
X202000000Y-135000000D03*
D10*
%TO.N,N/C*%
X204540000Y-135000000D03*
%TO.N,unconnected-(ESC3-Pad3)*%
X207080000Y-135000000D03*
%TD*%
D11*
%TO.N,Net-(U1-6_OUT1D)*%
%TO.C,RRDVR1*%
X169000000Y-135000000D03*
D10*
%TO.N,5V_EXT*%
X171540000Y-135000000D03*
%TO.N,GND*%
X174080000Y-135000000D03*
%TD*%
D21*
%TO.N,5V_EXT*%
X192550000Y-130450000D03*
%TO.N,GND*%
X194450000Y-130400000D03*
%TO.N,5V_EXT*%
X182050000Y-130950000D03*
%TO.N,GND*%
X183950000Y-130900000D03*
%TO.N,3V3 Rail*%
X132760000Y-84300000D03*
%TO.N,GND*%
X162000000Y-131100000D03*
X129000000Y-131100000D03*
D22*
%TO.N,3V3 Rail*%
X104000000Y-84000000D03*
D21*
X137900000Y-88300000D03*
%TO.N,GND*%
X115900000Y-97050000D03*
X106500000Y-131100000D03*
D22*
X105000000Y-113500000D03*
D21*
X118850000Y-97050000D03*
%TO.N,3V3 Rail*%
X158960000Y-87900000D03*
%TO.N,GND*%
X126150000Y-91200000D03*
X150500000Y-131100000D03*
%TO.N,3V3 Rail*%
X128000000Y-92500000D03*
%TO.N,GND*%
X173600000Y-131100000D03*
%TO.N,3V3 Rail*%
X107447500Y-91000000D03*
%TO.N,GND*%
X139500000Y-131100000D03*
D22*
%TO.N,3V3 Rail*%
X108100000Y-101400000D03*
X107500000Y-101500000D03*
D21*
%TO.N,GND*%
X117600000Y-131100000D03*
D22*
%TO.N,/SDA*%
X162500000Y-93500000D03*
X159920000Y-99900000D03*
%TO.N,/SCL*%
X156500000Y-95000000D03*
X157380000Y-99900000D03*
%TO.N,5V_FC*%
X108000000Y-99500000D03*
D21*
X120000000Y-100400000D03*
X115750000Y-99000000D03*
X99000000Y-93500000D03*
D22*
X107400000Y-99460000D03*
D21*
%TO.N,5V_EXT*%
X171700000Y-131150000D03*
X137600000Y-131150000D03*
X95725000Y-113600000D03*
X104600000Y-131150000D03*
X160100000Y-131150000D03*
X115700000Y-131150000D03*
X127100000Y-131150000D03*
X148600000Y-131150000D03*
%TO.N,3V3 Rail*%
X136000000Y-88400000D03*
X157060000Y-87900000D03*
D22*
X163400000Y-99800000D03*
X140500000Y-85040000D03*
X153900000Y-99800000D03*
D21*
X150000000Y-88000000D03*
X130860000Y-84300000D03*
X126150000Y-89300000D03*
D22*
X125000000Y-99000000D03*
D21*
X129000000Y-100100000D03*
%TD*%
D23*
%TO.N,5V_EXT*%
X182000000Y-127000000D02*
X182000000Y-135000000D01*
X178500000Y-123500000D02*
X182000000Y-127000000D01*
X178500000Y-123500000D02*
X185000000Y-123500000D01*
X185000000Y-123500000D02*
X192014000Y-130514000D01*
X192014000Y-130514000D02*
X192014000Y-134054000D01*
X192014000Y-134054000D02*
X192460000Y-134500000D01*
X159000000Y-123500000D02*
X178500000Y-123500000D01*
D24*
X171540000Y-127040000D02*
X171540000Y-135000000D01*
X168000000Y-123500000D02*
X171540000Y-127040000D01*
D25*
%TO.N,/5V Rail_FC*%
X99000000Y-93500000D02*
X104960000Y-99460000D01*
X115750000Y-99000000D02*
X119950000Y-99000000D01*
X120000000Y-98950000D02*
X120000000Y-101580000D01*
X120000000Y-101580000D02*
X119280000Y-102300000D01*
X96070000Y-90570000D02*
X93570000Y-90570000D01*
X104960000Y-99460000D02*
X112000000Y-99460000D01*
X99000000Y-93500000D02*
X96070000Y-90570000D01*
X115290000Y-99460000D02*
X112000000Y-99460000D01*
X115750000Y-99000000D02*
X115290000Y-99460000D01*
X93570000Y-90570000D02*
X93500000Y-90500000D01*
X119950000Y-99000000D02*
X120000000Y-98950000D01*
X107400000Y-99460000D02*
X105960000Y-99460000D01*
D24*
%TO.N,5V_EXT*%
X115000000Y-123500000D02*
X115000000Y-126000000D01*
X104500000Y-124800000D02*
X103900000Y-124800000D01*
X95225000Y-114200000D02*
X94275000Y-115150000D01*
X148000000Y-123500000D02*
X148000000Y-126000000D01*
X115000000Y-126000000D02*
X115500000Y-126500000D01*
X159000000Y-123500000D02*
X159000000Y-126000000D01*
X126000000Y-123500000D02*
X137000000Y-123500000D01*
X92500000Y-113400000D02*
X92500000Y-107600000D01*
X160000000Y-127000000D02*
X160000000Y-134960000D01*
X115000000Y-123500000D02*
X126000000Y-123500000D01*
X137000000Y-123500000D02*
X148000000Y-123500000D01*
X104500000Y-124800000D02*
X104500000Y-135000000D01*
X95225000Y-114100000D02*
X95225000Y-114200000D01*
X115000000Y-123500000D02*
X105800000Y-123500000D01*
X127000000Y-127000000D02*
X127000000Y-135000000D01*
X105800000Y-123500000D02*
X104500000Y-124800000D01*
X148000000Y-126000000D02*
X148460000Y-126460000D01*
X159000000Y-126000000D02*
X160000000Y-127000000D01*
X115500000Y-126500000D02*
X115500000Y-130800000D01*
X126000000Y-123500000D02*
X126000000Y-126000000D01*
X126000000Y-126000000D02*
X127000000Y-127000000D01*
X137460000Y-126460000D02*
X137460000Y-135000000D01*
X103900000Y-124800000D02*
X92500000Y-113400000D01*
X160000000Y-134960000D02*
X160040000Y-135000000D01*
X137000000Y-123500000D02*
X137000000Y-126000000D01*
X115460000Y-130840000D02*
X115460000Y-135000000D01*
X137000000Y-126000000D02*
X137460000Y-126460000D01*
X148460000Y-126460000D02*
X148460000Y-135000000D01*
X148000000Y-123500000D02*
X159000000Y-123500000D01*
X95725000Y-113600000D02*
X95225000Y-114100000D01*
%TD*%
%TA.AperFunction,Conductor*%
%TO.N,3V3 Rail*%
G36*
X154012782Y-77019962D02*
G01*
X154043641Y-77043641D01*
X159001657Y-82001657D01*
X159040221Y-82068452D01*
X159040221Y-82145580D01*
X159001657Y-82212375D01*
X158946878Y-82245946D01*
X158947178Y-82246670D01*
X158942613Y-82248560D01*
X158942353Y-82248720D01*
X158941777Y-82248907D01*
X158752444Y-82345378D01*
X158698282Y-82384728D01*
X158698282Y-82384729D01*
X159330590Y-83017037D01*
X159267007Y-83034075D01*
X159152993Y-83099901D01*
X159059901Y-83192993D01*
X158994075Y-83307007D01*
X158977037Y-83370590D01*
X158307919Y-82701472D01*
X158269355Y-82634677D01*
X158269355Y-82596174D01*
X158263598Y-82542628D01*
X158263598Y-82542625D01*
X158213351Y-82407909D01*
X158213349Y-82407905D01*
X158127190Y-82292812D01*
X158127187Y-82292809D01*
X158012094Y-82206650D01*
X158012084Y-82206645D01*
X157877376Y-82156401D01*
X157877378Y-82156401D01*
X157817842Y-82150001D01*
X157817823Y-82150000D01*
X157170000Y-82150000D01*
X157170000Y-83066988D01*
X157112993Y-83034075D01*
X156985826Y-83000000D01*
X156854174Y-83000000D01*
X156727007Y-83034075D01*
X156670000Y-83066988D01*
X156670000Y-82150000D01*
X156022177Y-82150000D01*
X156022157Y-82150001D01*
X155962622Y-82156401D01*
X155827915Y-82206645D01*
X155827905Y-82206650D01*
X155712812Y-82292809D01*
X155712809Y-82292812D01*
X155626650Y-82407905D01*
X155626645Y-82407915D01*
X155576401Y-82542622D01*
X155570001Y-82602157D01*
X155570000Y-82602177D01*
X155570000Y-83250000D01*
X156486988Y-83250000D01*
X156454075Y-83307007D01*
X156420000Y-83434174D01*
X156420000Y-83565826D01*
X156454075Y-83692993D01*
X156486988Y-83750000D01*
X155570000Y-83750000D01*
X155570000Y-84397822D01*
X155570001Y-84397842D01*
X155576401Y-84457377D01*
X155626645Y-84592084D01*
X155626650Y-84592094D01*
X155712809Y-84707187D01*
X155712812Y-84707190D01*
X155827905Y-84793349D01*
X155827915Y-84793354D01*
X155962623Y-84843598D01*
X155962621Y-84843598D01*
X156022157Y-84849998D01*
X156022177Y-84850000D01*
X156670000Y-84850000D01*
X156670000Y-83933012D01*
X156727007Y-83965925D01*
X156854174Y-84000000D01*
X156985826Y-84000000D01*
X157112993Y-83965925D01*
X157170000Y-83933012D01*
X157170000Y-84850000D01*
X157817823Y-84850000D01*
X157817842Y-84849998D01*
X157877377Y-84843598D01*
X158012084Y-84793354D01*
X158012094Y-84793349D01*
X158127187Y-84707190D01*
X158127190Y-84707187D01*
X158213349Y-84592094D01*
X158213351Y-84592090D01*
X158263598Y-84457374D01*
X158263598Y-84457370D01*
X158269101Y-84406185D01*
X158266804Y-84376567D01*
X158300087Y-84306990D01*
X158307919Y-84298526D01*
X158977037Y-83629407D01*
X158994075Y-83692993D01*
X159059901Y-83807007D01*
X159152993Y-83900099D01*
X159267007Y-83965925D01*
X159330589Y-83982962D01*
X158698282Y-84615270D01*
X158752444Y-84654621D01*
X158752444Y-84654622D01*
X158941779Y-84751093D01*
X159143871Y-84816757D01*
X159353758Y-84850000D01*
X159566242Y-84850000D01*
X159776128Y-84816757D01*
X159978223Y-84751093D01*
X160152067Y-84662513D01*
X160227510Y-84646476D01*
X160300863Y-84670309D01*
X160352472Y-84727626D01*
X160365616Y-84765049D01*
X162083623Y-93058874D01*
X162079187Y-93135875D01*
X162066758Y-93163597D01*
X161993633Y-93290251D01*
X161956600Y-93428458D01*
X161956600Y-93571541D01*
X161993633Y-93709748D01*
X162065169Y-93833651D01*
X162065170Y-93833652D01*
X162065172Y-93833655D01*
X162166345Y-93934828D01*
X162166347Y-93934829D01*
X162166351Y-93934832D01*
X162220629Y-93966170D01*
X162275166Y-94020708D01*
X162292031Y-94064984D01*
X162761172Y-96329797D01*
X162900000Y-97000000D01*
X164504726Y-99292465D01*
X164848596Y-99783709D01*
X164874965Y-99856190D01*
X164861561Y-99932144D01*
X164811976Y-99991221D01*
X164739495Y-100017590D01*
X164736584Y-100017815D01*
X160579813Y-100298949D01*
X160504136Y-100284060D01*
X160446042Y-100233326D01*
X160421099Y-100160343D01*
X160425837Y-100111723D01*
X160426366Y-100109748D01*
X160426368Y-100109745D01*
X160453840Y-100007217D01*
X160463399Y-99971545D01*
X160463400Y-99971539D01*
X160463400Y-99828460D01*
X160463399Y-99828458D01*
X160426368Y-99690255D01*
X160354828Y-99566345D01*
X160253655Y-99465172D01*
X160253652Y-99465170D01*
X160253651Y-99465169D01*
X160129748Y-99393633D01*
X160129745Y-99393632D01*
X159991540Y-99356600D01*
X159848460Y-99356600D01*
X159710251Y-99393633D01*
X159586348Y-99465169D01*
X159485169Y-99566348D01*
X159413633Y-99690251D01*
X159376600Y-99828458D01*
X159376600Y-99971541D01*
X159413633Y-100109748D01*
X159443061Y-100160718D01*
X159463023Y-100235218D01*
X159443061Y-100309718D01*
X159388523Y-100364256D01*
X159324077Y-100383878D01*
X157939645Y-100477511D01*
X157863968Y-100462622D01*
X157805874Y-100411888D01*
X157780931Y-100338905D01*
X157795820Y-100263228D01*
X157811388Y-100238137D01*
X157814823Y-100233659D01*
X157814828Y-100233655D01*
X157886368Y-100109745D01*
X157923400Y-99971540D01*
X157923400Y-99828460D01*
X157886368Y-99690255D01*
X157814828Y-99566345D01*
X157713655Y-99465172D01*
X157713652Y-99465170D01*
X157713651Y-99465169D01*
X157589748Y-99393633D01*
X157589745Y-99393632D01*
X157451540Y-99356600D01*
X157308460Y-99356600D01*
X157170251Y-99393633D01*
X157046348Y-99465169D01*
X156945169Y-99566348D01*
X156873633Y-99690251D01*
X156836600Y-99828458D01*
X156836600Y-99971541D01*
X156873633Y-100109748D01*
X156945169Y-100233651D01*
X156945170Y-100233652D01*
X156945172Y-100233655D01*
X157004690Y-100293173D01*
X157043253Y-100359966D01*
X157043253Y-100437094D01*
X157004689Y-100503889D01*
X156937894Y-100542453D01*
X156909384Y-100547190D01*
X142529692Y-101519730D01*
X142462619Y-101508729D01*
X142389244Y-101478336D01*
X142224161Y-101445500D01*
X142055839Y-101445500D01*
X141890753Y-101478337D01*
X141735247Y-101542749D01*
X141735229Y-101542759D01*
X141717155Y-101554835D01*
X141644436Y-101579602D01*
X140254032Y-101673639D01*
X140178355Y-101658750D01*
X140149454Y-101640158D01*
X140144712Y-101636266D01*
X140004763Y-101542754D01*
X140004750Y-101542748D01*
X139849250Y-101478338D01*
X139849246Y-101478337D01*
X139684161Y-101445500D01*
X139515839Y-101445500D01*
X139350753Y-101478337D01*
X139350749Y-101478338D01*
X139195249Y-101542748D01*
X139195236Y-101542754D01*
X139055289Y-101636265D01*
X139055278Y-101636274D01*
X138967775Y-101723777D01*
X138900980Y-101762341D01*
X138872471Y-101767078D01*
X137866974Y-101835083D01*
X137791297Y-101820194D01*
X137733204Y-101769461D01*
X137723734Y-101755288D01*
X137604712Y-101636266D01*
X137576645Y-101617512D01*
X137464763Y-101542754D01*
X137464750Y-101542748D01*
X137309250Y-101478338D01*
X137309246Y-101478337D01*
X137144161Y-101445500D01*
X136975839Y-101445500D01*
X136810753Y-101478337D01*
X136810749Y-101478338D01*
X136655249Y-101542748D01*
X136655236Y-101542754D01*
X136515289Y-101636265D01*
X136515284Y-101636269D01*
X136396269Y-101755284D01*
X136396265Y-101755289D01*
X136311533Y-101882100D01*
X136253545Y-101932954D01*
X136197698Y-101947980D01*
X135430343Y-101999879D01*
X135354666Y-101984990D01*
X135296573Y-101934257D01*
X135282630Y-101908236D01*
X135277249Y-101895246D01*
X135277248Y-101895242D01*
X135259462Y-101868624D01*
X135237051Y-101835083D01*
X135183734Y-101755288D01*
X135064712Y-101636266D01*
X135036645Y-101617512D01*
X134924763Y-101542754D01*
X134924750Y-101542748D01*
X134769250Y-101478338D01*
X134769246Y-101478337D01*
X134604161Y-101445500D01*
X134435839Y-101445500D01*
X134270753Y-101478337D01*
X134270749Y-101478338D01*
X134115249Y-101542748D01*
X134115236Y-101542754D01*
X133975289Y-101636265D01*
X133975284Y-101636269D01*
X133856269Y-101755284D01*
X133856265Y-101755289D01*
X133762754Y-101895236D01*
X133762749Y-101895246D01*
X133705472Y-102033527D01*
X133658519Y-102094717D01*
X133587262Y-102124232D01*
X133577868Y-102125167D01*
X132957216Y-102167144D01*
X132881539Y-102152255D01*
X132823446Y-102101522D01*
X132805102Y-102057357D01*
X132803787Y-102057757D01*
X132801662Y-102050753D01*
X132801662Y-102050751D01*
X132737248Y-101895242D01*
X132737247Y-101895240D01*
X132737245Y-101895236D01*
X132653031Y-101769202D01*
X132643734Y-101755288D01*
X132524712Y-101636266D01*
X132496645Y-101617512D01*
X132384763Y-101542754D01*
X132384750Y-101542748D01*
X132229250Y-101478338D01*
X132229246Y-101478337D01*
X132064161Y-101445500D01*
X131895839Y-101445500D01*
X131730753Y-101478337D01*
X131730749Y-101478338D01*
X131575249Y-101542748D01*
X131575236Y-101542754D01*
X131435289Y-101636265D01*
X131435284Y-101636269D01*
X131316269Y-101755284D01*
X131316265Y-101755289D01*
X131222754Y-101895236D01*
X131222748Y-101895249D01*
X131158338Y-102050749D01*
X131158337Y-102050751D01*
X131132596Y-102180160D01*
X131098482Y-102249334D01*
X131034353Y-102292184D01*
X130996513Y-102299751D01*
X130450933Y-102336650D01*
X130375256Y-102321761D01*
X130317162Y-102271027D01*
X130294742Y-102217058D01*
X130294499Y-102215838D01*
X130261662Y-102050751D01*
X130197248Y-101895242D01*
X130197247Y-101895240D01*
X130197245Y-101895236D01*
X130113031Y-101769202D01*
X130103734Y-101755288D01*
X129984712Y-101636266D01*
X129956645Y-101617512D01*
X129844763Y-101542754D01*
X129844750Y-101542748D01*
X129689250Y-101478338D01*
X129689246Y-101478337D01*
X129524161Y-101445500D01*
X129355839Y-101445500D01*
X129190753Y-101478337D01*
X129190749Y-101478338D01*
X129035249Y-101542748D01*
X129035236Y-101542754D01*
X128895289Y-101636265D01*
X128895284Y-101636269D01*
X128776269Y-101755284D01*
X128776265Y-101755289D01*
X128682754Y-101895236D01*
X128682748Y-101895249D01*
X128618338Y-102050749D01*
X128618337Y-102050753D01*
X128585500Y-102215838D01*
X128585500Y-102323553D01*
X128565538Y-102398053D01*
X128511000Y-102452591D01*
X128446554Y-102472213D01*
X127913554Y-102508261D01*
X127837877Y-102493372D01*
X127779783Y-102442638D01*
X127754840Y-102369655D01*
X127754500Y-102359601D01*
X127754500Y-102215838D01*
X127730407Y-102094717D01*
X127721662Y-102050751D01*
X127657248Y-101895242D01*
X127657247Y-101895240D01*
X127657245Y-101895236D01*
X127573031Y-101769202D01*
X127563734Y-101755288D01*
X127444712Y-101636266D01*
X127416645Y-101617512D01*
X127304763Y-101542754D01*
X127304750Y-101542748D01*
X127149250Y-101478338D01*
X127149246Y-101478337D01*
X126984161Y-101445500D01*
X126815839Y-101445500D01*
X126650753Y-101478337D01*
X126650749Y-101478338D01*
X126495249Y-101542748D01*
X126495236Y-101542754D01*
X126355289Y-101636265D01*
X126355284Y-101636269D01*
X126236269Y-101755284D01*
X126236265Y-101755289D01*
X126142754Y-101895236D01*
X126142748Y-101895249D01*
X126078338Y-102050749D01*
X126078337Y-102050753D01*
X126045500Y-102215838D01*
X126045500Y-102384161D01*
X126061578Y-102464991D01*
X126056534Y-102541954D01*
X126013683Y-102606083D01*
X125944509Y-102640196D01*
X125925495Y-102642719D01*
X125346828Y-102681856D01*
X125271151Y-102666967D01*
X125213058Y-102616234D01*
X125188114Y-102543250D01*
X125190637Y-102504127D01*
X125192777Y-102493372D01*
X125214500Y-102384161D01*
X125214500Y-102215839D01*
X125181662Y-102050751D01*
X125117248Y-101895242D01*
X125117247Y-101895240D01*
X125117245Y-101895236D01*
X125033031Y-101769202D01*
X125023734Y-101755288D01*
X124904712Y-101636266D01*
X124876645Y-101617512D01*
X124764763Y-101542754D01*
X124764750Y-101542748D01*
X124609250Y-101478338D01*
X124609246Y-101478337D01*
X124444161Y-101445500D01*
X124275839Y-101445500D01*
X124110753Y-101478337D01*
X124110749Y-101478338D01*
X123955249Y-101542748D01*
X123955236Y-101542754D01*
X123815289Y-101636265D01*
X123815284Y-101636269D01*
X123696269Y-101755284D01*
X123696261Y-101755294D01*
X123664568Y-101802725D01*
X123606580Y-101853578D01*
X123530933Y-101868624D01*
X123457899Y-101843830D01*
X123407046Y-101785842D01*
X123394449Y-101748530D01*
X123389610Y-101723777D01*
X122061202Y-94928458D01*
X155956600Y-94928458D01*
X155956600Y-95071541D01*
X155993633Y-95209748D01*
X156065169Y-95333651D01*
X156065170Y-95333652D01*
X156065172Y-95333655D01*
X156166345Y-95434828D01*
X156166347Y-95434829D01*
X156166348Y-95434830D01*
X156290251Y-95506366D01*
X156290252Y-95506366D01*
X156290255Y-95506368D01*
X156428460Y-95543400D01*
X156571540Y-95543400D01*
X156709745Y-95506368D01*
X156833655Y-95434828D01*
X156934828Y-95333655D01*
X157006368Y-95209745D01*
X157043400Y-95071540D01*
X157043400Y-94928460D01*
X157006368Y-94790255D01*
X156934828Y-94666345D01*
X156833655Y-94565172D01*
X156833652Y-94565170D01*
X156833651Y-94565169D01*
X156709748Y-94493633D01*
X156709745Y-94493632D01*
X156571540Y-94456600D01*
X156428460Y-94456600D01*
X156290251Y-94493633D01*
X156166348Y-94565169D01*
X156065169Y-94666348D01*
X155993633Y-94790251D01*
X155956600Y-94928458D01*
X122061202Y-94928458D01*
X121892403Y-94064984D01*
X121642546Y-92786869D01*
X121495530Y-92034825D01*
X121375199Y-91419285D01*
X121880500Y-91419285D01*
X121880500Y-91580714D01*
X121911992Y-91739036D01*
X121911993Y-91739040D01*
X121973764Y-91888171D01*
X121973771Y-91888184D01*
X122027721Y-91968924D01*
X122063453Y-92022401D01*
X122177599Y-92136547D01*
X122217976Y-92163526D01*
X122311815Y-92226228D01*
X122311828Y-92226235D01*
X122440844Y-92279674D01*
X122460961Y-92288007D01*
X122619286Y-92319500D01*
X122780714Y-92319500D01*
X122939039Y-92288007D01*
X123008612Y-92259189D01*
X123088171Y-92226235D01*
X123088176Y-92226232D01*
X123088179Y-92226231D01*
X123088181Y-92226229D01*
X123088184Y-92226228D01*
X123115461Y-92208001D01*
X123222401Y-92136547D01*
X123336547Y-92022401D01*
X123426231Y-91888179D01*
X123426232Y-91888176D01*
X123426235Y-91888171D01*
X123481800Y-91754023D01*
X123488007Y-91739039D01*
X123519500Y-91580714D01*
X123519500Y-91419286D01*
X123518722Y-91415377D01*
X123499533Y-91318906D01*
X123488007Y-91260961D01*
X123471041Y-91220001D01*
X123457029Y-91186172D01*
X123436442Y-91136472D01*
X125505000Y-91136472D01*
X125505000Y-91263527D01*
X125529786Y-91388137D01*
X125529787Y-91388141D01*
X125578407Y-91505520D01*
X125578410Y-91505526D01*
X125631782Y-91585402D01*
X125648996Y-91611164D01*
X125738836Y-91701004D01*
X125738839Y-91701006D01*
X125844473Y-91771589D01*
X125844475Y-91771590D01*
X125844478Y-91771592D01*
X125961860Y-91820213D01*
X126086473Y-91845000D01*
X126213527Y-91845000D01*
X126338140Y-91820213D01*
X126455522Y-91771592D01*
X126561164Y-91701004D01*
X126589991Y-91672177D01*
X134870000Y-91672177D01*
X134870000Y-92320000D01*
X135786988Y-92320000D01*
X135754075Y-92377007D01*
X135720000Y-92504174D01*
X135720000Y-92635826D01*
X135754075Y-92762993D01*
X135786988Y-92820000D01*
X134870000Y-92820000D01*
X134870000Y-93467822D01*
X134870001Y-93467842D01*
X134876401Y-93527377D01*
X134926645Y-93662084D01*
X134926650Y-93662094D01*
X135012809Y-93777187D01*
X135012812Y-93777190D01*
X135127905Y-93863349D01*
X135127915Y-93863354D01*
X135262623Y-93913598D01*
X135262621Y-93913598D01*
X135322157Y-93919998D01*
X135322177Y-93920000D01*
X135970000Y-93920000D01*
X135970000Y-93003012D01*
X136027007Y-93035925D01*
X136154174Y-93070000D01*
X136285826Y-93070000D01*
X136412993Y-93035925D01*
X136470000Y-93003012D01*
X136470000Y-93920000D01*
X137117823Y-93920000D01*
X137117842Y-93919998D01*
X137177377Y-93913598D01*
X137312084Y-93863354D01*
X137312094Y-93863349D01*
X137427187Y-93777190D01*
X137427190Y-93777187D01*
X137513349Y-93662094D01*
X137513354Y-93662084D01*
X137563598Y-93527377D01*
X137569998Y-93467842D01*
X137570000Y-93467822D01*
X137570000Y-93171075D01*
X137589962Y-93096575D01*
X137644500Y-93042037D01*
X137719000Y-93022075D01*
X137793500Y-93042037D01*
X137842888Y-93088295D01*
X137944023Y-93239655D01*
X137944026Y-93239658D01*
X138090345Y-93385977D01*
X138262403Y-93500942D01*
X138341591Y-93533742D01*
X138453580Y-93580130D01*
X138656535Y-93620500D01*
X138863465Y-93620500D01*
X139066420Y-93580130D01*
X139257598Y-93500941D01*
X139429655Y-93385977D01*
X139575977Y-93239655D01*
X139690941Y-93067598D01*
X139770130Y-92876420D01*
X139810500Y-92673465D01*
X139810500Y-92466535D01*
X139810500Y-92466534D01*
X140249500Y-92466534D01*
X140249500Y-92673465D01*
X140289869Y-92876417D01*
X140369057Y-93067596D01*
X140484022Y-93239654D01*
X140630345Y-93385977D01*
X140802403Y-93500942D01*
X140881591Y-93533742D01*
X140993580Y-93580130D01*
X141196535Y-93620500D01*
X141403465Y-93620500D01*
X141606420Y-93580130D01*
X141797598Y-93500941D01*
X141969655Y-93385977D01*
X142115977Y-93239655D01*
X142230941Y-93067598D01*
X142244061Y-93035925D01*
X142268686Y-92976473D01*
X142273233Y-92965496D01*
X142320184Y-92904308D01*
X142391441Y-92874792D01*
X142467909Y-92884859D01*
X142529099Y-92931811D01*
X142552597Y-92976473D01*
X142588906Y-93088222D01*
X142685378Y-93277555D01*
X142724728Y-93331716D01*
X142724729Y-93331716D01*
X143357037Y-92699408D01*
X143374075Y-92762993D01*
X143439901Y-92877007D01*
X143532993Y-92970099D01*
X143647007Y-93035925D01*
X143710590Y-93052962D01*
X143078282Y-93685270D01*
X143132444Y-93724621D01*
X143132444Y-93724622D01*
X143321779Y-93821093D01*
X143523871Y-93886757D01*
X143733758Y-93920000D01*
X143946242Y-93920000D01*
X144156128Y-93886757D01*
X144358220Y-93821093D01*
X144547555Y-93724622D01*
X144547557Y-93724620D01*
X144601716Y-93685270D01*
X144601716Y-93685269D01*
X143969409Y-93052962D01*
X144032993Y-93035925D01*
X144147007Y-92970099D01*
X144240099Y-92877007D01*
X144305925Y-92762993D01*
X144322962Y-92699409D01*
X144955269Y-93331716D01*
X144955270Y-93331716D01*
X144994620Y-93277557D01*
X144994622Y-93277555D01*
X145091093Y-93088220D01*
X145156757Y-92886128D01*
X145190000Y-92676242D01*
X145190000Y-92463757D01*
X145156757Y-92253871D01*
X145091093Y-92051779D01*
X144994621Y-91862444D01*
X144955270Y-91808282D01*
X144322962Y-92440589D01*
X144305925Y-92377007D01*
X144240099Y-92262993D01*
X144147007Y-92169901D01*
X144032993Y-92104075D01*
X143969407Y-92087037D01*
X144601716Y-91454729D01*
X144601716Y-91454728D01*
X144547555Y-91415378D01*
X144547555Y-91415377D01*
X144358220Y-91318906D01*
X144156128Y-91253242D01*
X143946242Y-91220000D01*
X143733758Y-91220000D01*
X143523871Y-91253242D01*
X143321779Y-91318906D01*
X143132444Y-91415378D01*
X143078282Y-91454728D01*
X143078282Y-91454729D01*
X143710590Y-92087037D01*
X143647007Y-92104075D01*
X143532993Y-92169901D01*
X143439901Y-92262993D01*
X143374075Y-92377007D01*
X143357037Y-92440590D01*
X142724729Y-91808282D01*
X142724728Y-91808282D01*
X142685378Y-91862444D01*
X142588906Y-92051777D01*
X142552597Y-92163526D01*
X142510590Y-92228211D01*
X142441868Y-92263226D01*
X142364846Y-92259189D01*
X142300161Y-92217182D01*
X142273232Y-92174501D01*
X142230943Y-92072405D01*
X142115977Y-91900345D01*
X141969658Y-91754026D01*
X141969655Y-91754023D01*
X141797598Y-91639059D01*
X141797599Y-91639059D01*
X141797597Y-91639058D01*
X141656742Y-91580714D01*
X141606420Y-91559870D01*
X141606418Y-91559869D01*
X141606417Y-91559869D01*
X141403465Y-91519500D01*
X141196535Y-91519500D01*
X140993582Y-91559869D01*
X140802403Y-91639057D01*
X140630345Y-91754022D01*
X140484022Y-91900345D01*
X140369057Y-92072403D01*
X140289869Y-92263582D01*
X140249500Y-92466534D01*
X139810500Y-92466534D01*
X139809947Y-92463757D01*
X139792692Y-92377007D01*
X139770130Y-92263580D01*
X139709665Y-92117605D01*
X139690942Y-92072403D01*
X139575977Y-91900345D01*
X139429654Y-91754022D01*
X139257596Y-91639057D01*
X139099219Y-91573455D01*
X139066420Y-91559870D01*
X139066418Y-91559869D01*
X139066417Y-91559869D01*
X138863465Y-91519500D01*
X138656535Y-91519500D01*
X138453582Y-91559869D01*
X138262403Y-91639057D01*
X138090345Y-91754022D01*
X137944022Y-91900345D01*
X137842889Y-92051704D01*
X137784901Y-92102558D01*
X137709255Y-92117605D01*
X137636220Y-92092813D01*
X137585366Y-92034825D01*
X137570000Y-91968924D01*
X137570000Y-91672177D01*
X137569998Y-91672157D01*
X137563598Y-91612622D01*
X137513354Y-91477915D01*
X137513349Y-91477905D01*
X137427190Y-91362812D01*
X137427187Y-91362809D01*
X137312094Y-91276650D01*
X137312084Y-91276645D01*
X137177376Y-91226401D01*
X137177378Y-91226401D01*
X137117842Y-91220001D01*
X137117823Y-91220000D01*
X136470000Y-91220000D01*
X136470000Y-92136988D01*
X136412993Y-92104075D01*
X136285826Y-92070000D01*
X136154174Y-92070000D01*
X136027007Y-92104075D01*
X135970000Y-92136988D01*
X135970000Y-91220000D01*
X135322177Y-91220000D01*
X135322157Y-91220001D01*
X135262622Y-91226401D01*
X135127915Y-91276645D01*
X135127905Y-91276650D01*
X135012812Y-91362809D01*
X135012809Y-91362812D01*
X134926650Y-91477905D01*
X134926645Y-91477915D01*
X134876401Y-91612622D01*
X134870001Y-91672157D01*
X134870000Y-91672177D01*
X126589991Y-91672177D01*
X126651004Y-91611164D01*
X126721592Y-91505522D01*
X126770213Y-91388140D01*
X126795000Y-91263527D01*
X126795000Y-91136473D01*
X126790096Y-91111821D01*
X126770213Y-91011862D01*
X126770212Y-91011858D01*
X126756022Y-90977600D01*
X126721592Y-90894478D01*
X126651004Y-90788836D01*
X126561164Y-90698996D01*
X126561160Y-90698993D01*
X126455526Y-90628410D01*
X126455520Y-90628407D01*
X126338141Y-90579787D01*
X126338137Y-90579786D01*
X126213527Y-90555000D01*
X126086473Y-90555000D01*
X125961862Y-90579786D01*
X125961858Y-90579787D01*
X125844479Y-90628407D01*
X125844473Y-90628410D01*
X125738839Y-90698993D01*
X125738832Y-90698999D01*
X125648999Y-90788832D01*
X125648993Y-90788839D01*
X125578410Y-90894473D01*
X125578407Y-90894479D01*
X125529787Y-91011858D01*
X125529786Y-91011862D01*
X125505000Y-91136472D01*
X123436442Y-91136472D01*
X123426233Y-91111825D01*
X123426228Y-91111815D01*
X123372274Y-91031068D01*
X123336547Y-90977599D01*
X123222401Y-90863453D01*
X123195483Y-90845467D01*
X123088184Y-90773771D01*
X123088171Y-90773764D01*
X122939040Y-90711993D01*
X122939036Y-90711992D01*
X122780714Y-90680500D01*
X122619286Y-90680500D01*
X122460963Y-90711992D01*
X122460959Y-90711993D01*
X122311828Y-90773764D01*
X122311815Y-90773771D01*
X122177600Y-90863452D01*
X122177595Y-90863456D01*
X122063456Y-90977595D01*
X122063452Y-90977600D01*
X121973771Y-91111815D01*
X121973764Y-91111828D01*
X121911993Y-91260959D01*
X121911992Y-91260963D01*
X121880500Y-91419285D01*
X121375199Y-91419285D01*
X121005653Y-89528917D01*
X121005778Y-89471109D01*
X121116143Y-88919285D01*
X121880500Y-88919285D01*
X121880500Y-89080714D01*
X121911992Y-89239036D01*
X121911993Y-89239040D01*
X121973764Y-89388171D01*
X121973771Y-89388184D01*
X122029181Y-89471109D01*
X122063453Y-89522401D01*
X122177599Y-89636547D01*
X122231068Y-89672274D01*
X122311815Y-89726228D01*
X122311828Y-89726235D01*
X122440844Y-89779674D01*
X122460961Y-89788007D01*
X122619286Y-89819500D01*
X122780714Y-89819500D01*
X122939039Y-89788007D01*
X123007714Y-89759560D01*
X123088171Y-89726235D01*
X123088176Y-89726232D01*
X123088179Y-89726231D01*
X123088181Y-89726229D01*
X123088184Y-89726228D01*
X123115461Y-89708001D01*
X123222401Y-89636547D01*
X123336547Y-89522401D01*
X123426231Y-89388179D01*
X123426232Y-89388176D01*
X123426235Y-89388171D01*
X123459560Y-89307714D01*
X123488007Y-89239039D01*
X123519500Y-89080714D01*
X123519500Y-88919286D01*
X123512231Y-88882745D01*
X123488007Y-88760963D01*
X123488006Y-88760959D01*
X123426235Y-88611828D01*
X123426228Y-88611815D01*
X123372274Y-88531068D01*
X123336547Y-88477599D01*
X123222401Y-88363453D01*
X123195483Y-88345467D01*
X123088184Y-88273771D01*
X123088171Y-88273764D01*
X122939040Y-88211993D01*
X122939036Y-88211992D01*
X122780714Y-88180500D01*
X122619286Y-88180500D01*
X122460963Y-88211992D01*
X122460959Y-88211993D01*
X122311828Y-88273764D01*
X122311815Y-88273771D01*
X122177600Y-88363452D01*
X122177595Y-88363456D01*
X122063456Y-88477595D01*
X122063452Y-88477600D01*
X121973771Y-88611815D01*
X121973764Y-88611828D01*
X121911993Y-88760959D01*
X121911992Y-88760963D01*
X121880500Y-88919285D01*
X121116143Y-88919285D01*
X121123451Y-88882745D01*
X121227309Y-88363456D01*
X121586332Y-86568336D01*
X121620517Y-86499201D01*
X121684691Y-86456418D01*
X121761659Y-86451454D01*
X121830798Y-86485640D01*
X121873581Y-86549814D01*
X121878707Y-86573607D01*
X121879072Y-86573535D01*
X121911992Y-86739036D01*
X121911993Y-86739040D01*
X121973764Y-86888171D01*
X121973771Y-86888184D01*
X122045467Y-86995483D01*
X122063453Y-87022401D01*
X122177599Y-87136547D01*
X122231068Y-87172274D01*
X122311815Y-87226228D01*
X122311828Y-87226235D01*
X122440844Y-87279674D01*
X122460961Y-87288007D01*
X122619286Y-87319500D01*
X122780714Y-87319500D01*
X122939039Y-87288007D01*
X123007714Y-87259560D01*
X123088171Y-87226235D01*
X123088176Y-87226232D01*
X123088179Y-87226231D01*
X123088181Y-87226229D01*
X123088184Y-87226228D01*
X123115461Y-87208001D01*
X123222401Y-87136547D01*
X123336547Y-87022401D01*
X123426231Y-86888179D01*
X123426232Y-86888176D01*
X123426235Y-86888171D01*
X123459560Y-86807714D01*
X123488007Y-86739039D01*
X123519500Y-86580714D01*
X123519500Y-86419286D01*
X123488007Y-86260961D01*
X123449985Y-86169167D01*
X123426235Y-86111828D01*
X123426228Y-86111815D01*
X123357240Y-86008569D01*
X123336547Y-85977599D01*
X123222401Y-85863453D01*
X123195483Y-85845467D01*
X123088184Y-85773771D01*
X123088171Y-85773764D01*
X122939040Y-85711993D01*
X122939036Y-85711992D01*
X122780714Y-85680500D01*
X122619286Y-85680500D01*
X122460963Y-85711992D01*
X122460959Y-85711993D01*
X122311828Y-85773764D01*
X122311815Y-85773771D01*
X122177600Y-85863452D01*
X122177595Y-85863456D01*
X122063456Y-85977595D01*
X122063452Y-85977600D01*
X121969702Y-86117907D01*
X121967762Y-86116610D01*
X121923041Y-86164333D01*
X121849228Y-86186702D01*
X121774120Y-86169167D01*
X121717841Y-86116427D01*
X121695472Y-86042614D01*
X121698286Y-86008569D01*
X121953163Y-84734181D01*
X121987347Y-84665048D01*
X122051521Y-84622265D01*
X122128489Y-84617301D01*
X122182043Y-84639516D01*
X122311821Y-84726231D01*
X122311824Y-84726232D01*
X122311828Y-84726235D01*
X122440844Y-84779674D01*
X122460961Y-84788007D01*
X122619286Y-84819500D01*
X122780714Y-84819500D01*
X122939039Y-84788007D01*
X123028157Y-84751093D01*
X123088171Y-84726235D01*
X123088176Y-84726232D01*
X123088179Y-84726231D01*
X123088181Y-84726229D01*
X123088184Y-84726228D01*
X123116680Y-84707187D01*
X123222401Y-84636547D01*
X123336547Y-84522401D01*
X123414200Y-84406185D01*
X123426228Y-84388184D01*
X123426235Y-84388171D01*
X123463367Y-84298526D01*
X123488007Y-84239039D01*
X123519500Y-84080714D01*
X123519500Y-83919286D01*
X123515683Y-83900099D01*
X123497049Y-83806420D01*
X123488007Y-83760961D01*
X123469110Y-83715340D01*
X123426233Y-83611825D01*
X123426228Y-83611815D01*
X123372274Y-83531068D01*
X123336547Y-83477599D01*
X123222401Y-83363453D01*
X123195483Y-83345467D01*
X123088184Y-83273771D01*
X123088171Y-83273764D01*
X122939040Y-83211993D01*
X122939036Y-83211992D01*
X122780714Y-83180500D01*
X122619286Y-83180500D01*
X122468133Y-83210566D01*
X122391170Y-83205522D01*
X122327041Y-83162671D01*
X122292928Y-83093497D01*
X122292958Y-83035208D01*
X122300000Y-83000000D01*
X122820901Y-80395497D01*
X122868188Y-80159061D01*
X123079565Y-79102177D01*
X129030000Y-79102177D01*
X129030000Y-79750000D01*
X129946988Y-79750000D01*
X129914075Y-79807007D01*
X129880000Y-79934174D01*
X129880000Y-80065826D01*
X129914075Y-80192993D01*
X129946988Y-80250000D01*
X129030000Y-80250000D01*
X129030000Y-80897822D01*
X129030001Y-80897842D01*
X129036401Y-80957377D01*
X129086645Y-81092084D01*
X129086650Y-81092094D01*
X129172809Y-81207187D01*
X129172812Y-81207190D01*
X129287905Y-81293349D01*
X129287915Y-81293354D01*
X129422623Y-81343598D01*
X129422621Y-81343598D01*
X129482157Y-81349998D01*
X129482177Y-81350000D01*
X130130000Y-81350000D01*
X130130000Y-80433012D01*
X130187007Y-80465925D01*
X130314174Y-80500000D01*
X130445826Y-80500000D01*
X130572993Y-80465925D01*
X130630000Y-80433012D01*
X130630000Y-81350000D01*
X131277823Y-81350000D01*
X131277842Y-81349998D01*
X131337377Y-81343598D01*
X131472084Y-81293354D01*
X131472094Y-81293349D01*
X131587187Y-81207190D01*
X131587190Y-81207187D01*
X131673349Y-81092094D01*
X131673351Y-81092090D01*
X131700726Y-81018695D01*
X131726724Y-80876997D01*
X131726821Y-80876791D01*
X131726804Y-80876567D01*
X131743297Y-80842088D01*
X131759803Y-80807322D01*
X131759989Y-80807193D01*
X131760087Y-80806990D01*
X131767919Y-80798526D01*
X132437037Y-80129407D01*
X132454075Y-80192993D01*
X132519901Y-80307007D01*
X132612993Y-80400099D01*
X132727007Y-80465925D01*
X132790590Y-80482962D01*
X132158282Y-81115270D01*
X132212444Y-81154621D01*
X132212444Y-81154622D01*
X132401779Y-81251093D01*
X132603871Y-81316757D01*
X132813758Y-81350000D01*
X133026242Y-81350000D01*
X133236128Y-81316757D01*
X133438220Y-81251093D01*
X133627555Y-81154622D01*
X133627557Y-81154620D01*
X133681716Y-81115270D01*
X133681716Y-81115269D01*
X133049409Y-80482962D01*
X133112993Y-80465925D01*
X133227007Y-80400099D01*
X133320099Y-80307007D01*
X133385925Y-80192993D01*
X133402962Y-80129409D01*
X134035269Y-80761716D01*
X134035270Y-80761716D01*
X134074620Y-80707557D01*
X134074622Y-80707555D01*
X134171091Y-80518226D01*
X134207401Y-80406474D01*
X134249408Y-80341789D01*
X134318129Y-80306773D01*
X134395152Y-80310809D01*
X134459837Y-80352816D01*
X134486767Y-80395497D01*
X134529057Y-80497595D01*
X134644022Y-80669654D01*
X134790345Y-80815977D01*
X134962403Y-80930942D01*
X135041591Y-80963742D01*
X135153580Y-81010130D01*
X135356535Y-81050500D01*
X135563465Y-81050500D01*
X135766420Y-81010130D01*
X135957598Y-80930941D01*
X136129655Y-80815977D01*
X136275977Y-80669655D01*
X136390941Y-80497598D01*
X136470130Y-80306420D01*
X136510500Y-80103465D01*
X136510500Y-79896535D01*
X136510500Y-79896534D01*
X136949500Y-79896534D01*
X136949500Y-80103465D01*
X136989869Y-80306417D01*
X137069057Y-80497596D01*
X137184022Y-80669654D01*
X137330345Y-80815977D01*
X137502403Y-80930942D01*
X137581591Y-80963742D01*
X137693580Y-81010130D01*
X137896535Y-81050500D01*
X138103465Y-81050500D01*
X138306420Y-81010130D01*
X138497598Y-80930941D01*
X138669655Y-80815977D01*
X138815977Y-80669655D01*
X138930941Y-80497598D01*
X139010130Y-80306420D01*
X139050500Y-80103465D01*
X139050500Y-79896535D01*
X139050500Y-79896534D01*
X139489500Y-79896534D01*
X139489500Y-80103465D01*
X139529869Y-80306417D01*
X139609057Y-80497596D01*
X139724022Y-80669654D01*
X139870345Y-80815977D01*
X140042403Y-80930942D01*
X140121591Y-80963742D01*
X140233580Y-81010130D01*
X140436535Y-81050500D01*
X140643465Y-81050500D01*
X140846420Y-81010130D01*
X141037598Y-80930941D01*
X141209655Y-80815977D01*
X141355977Y-80669655D01*
X141470941Y-80497598D01*
X141550130Y-80306420D01*
X141590500Y-80103465D01*
X141590500Y-79896535D01*
X141550130Y-79693580D01*
X141503742Y-79581591D01*
X141470942Y-79502403D01*
X141355977Y-79330345D01*
X141209654Y-79184022D01*
X141037596Y-79069057D01*
X140879219Y-79003455D01*
X140846420Y-78989870D01*
X140846418Y-78989869D01*
X140846417Y-78989869D01*
X140643465Y-78949500D01*
X140436535Y-78949500D01*
X140233582Y-78989869D01*
X140042403Y-79069057D01*
X139870345Y-79184022D01*
X139724022Y-79330345D01*
X139609057Y-79502403D01*
X139529869Y-79693582D01*
X139489500Y-79896534D01*
X139050500Y-79896534D01*
X139010130Y-79693580D01*
X138963742Y-79581591D01*
X138930942Y-79502403D01*
X138815977Y-79330345D01*
X138669654Y-79184022D01*
X138497596Y-79069057D01*
X138339219Y-79003455D01*
X138306420Y-78989870D01*
X138306418Y-78989869D01*
X138306417Y-78989869D01*
X138103465Y-78949500D01*
X137896535Y-78949500D01*
X137693582Y-78989869D01*
X137502403Y-79069057D01*
X137330345Y-79184022D01*
X137184022Y-79330345D01*
X137069057Y-79502403D01*
X136989869Y-79693582D01*
X136949500Y-79896534D01*
X136510500Y-79896534D01*
X136470130Y-79693580D01*
X136423742Y-79581591D01*
X136390942Y-79502403D01*
X136275977Y-79330345D01*
X136129654Y-79184022D01*
X135957596Y-79069057D01*
X135799219Y-79003455D01*
X135766420Y-78989870D01*
X135766418Y-78989869D01*
X135766417Y-78989869D01*
X135563465Y-78949500D01*
X135356535Y-78949500D01*
X135153582Y-78989869D01*
X134962403Y-79069057D01*
X134790345Y-79184022D01*
X134644022Y-79330345D01*
X134529057Y-79502404D01*
X134486767Y-79604502D01*
X134439814Y-79665692D01*
X134368557Y-79695207D01*
X134292089Y-79685140D01*
X134230899Y-79638187D01*
X134207401Y-79593525D01*
X134171091Y-79481773D01*
X134074621Y-79292444D01*
X134035270Y-79238282D01*
X133402962Y-79870589D01*
X133385925Y-79807007D01*
X133320099Y-79692993D01*
X133227007Y-79599901D01*
X133112993Y-79534075D01*
X133049407Y-79517037D01*
X133681716Y-78884729D01*
X133681716Y-78884728D01*
X133627555Y-78845378D01*
X133627555Y-78845377D01*
X133438220Y-78748906D01*
X133236128Y-78683242D01*
X133026242Y-78650000D01*
X132813758Y-78650000D01*
X132603871Y-78683242D01*
X132401779Y-78748906D01*
X132212444Y-78845378D01*
X132158282Y-78884728D01*
X132158282Y-78884729D01*
X132790590Y-79517037D01*
X132727007Y-79534075D01*
X132612993Y-79599901D01*
X132519901Y-79692993D01*
X132454075Y-79807007D01*
X132437037Y-79870590D01*
X131767919Y-79201472D01*
X131729355Y-79134677D01*
X131726724Y-79123001D01*
X131700725Y-78981300D01*
X131673353Y-78907913D01*
X131673349Y-78907905D01*
X131587190Y-78792812D01*
X131587187Y-78792809D01*
X131472094Y-78706650D01*
X131472084Y-78706645D01*
X131337376Y-78656401D01*
X131337378Y-78656401D01*
X131277842Y-78650001D01*
X131277823Y-78650000D01*
X130630000Y-78650000D01*
X130630000Y-79566988D01*
X130572993Y-79534075D01*
X130445826Y-79500000D01*
X130314174Y-79500000D01*
X130187007Y-79534075D01*
X130130000Y-79566988D01*
X130130000Y-78650000D01*
X129482177Y-78650000D01*
X129482157Y-78650001D01*
X129422622Y-78656401D01*
X129287915Y-78706645D01*
X129287905Y-78706650D01*
X129172812Y-78792809D01*
X129172809Y-78792812D01*
X129086650Y-78907905D01*
X129086645Y-78907915D01*
X129036401Y-79042622D01*
X129030001Y-79102157D01*
X129030000Y-79102177D01*
X123079565Y-79102177D01*
X123086208Y-79068961D01*
X123476044Y-77119779D01*
X123510230Y-77050640D01*
X123574404Y-77007857D01*
X123622151Y-77000000D01*
X153938282Y-77000000D01*
X154012782Y-77019962D01*
G37*
%TD.AperFunction*%
%TD*%
M02*
