%TF.GenerationSoftware,KiCad,Pcbnew,9.0.6*%
%TF.CreationDate,2026-06-03T06:54:15-04:00*%
%TF.ProjectId,2025-2026 A.R.I.E.S. PCB Design (FR this time),32303235-2d32-4303-9236-20412e522e49,rev?*%
%TF.SameCoordinates,Original*%
%TF.FileFunction,Copper,L1,Top*%
%TF.FilePolarity,Positive*%
%FSLAX46Y46*%
G04 Gerber Fmt 4.6, Leading zero omitted, Abs format (unit mm)*
G04 Created by KiCad (PCBNEW 9.0.6) date 2026-06-03 06:54:15*
%MOMM*%
%LPD*%
G01*
G04 APERTURE LIST*
G04 Aperture macros list*
%AMRoundRect*
0 Rectangle with rounded corners*
0 $1 Rounding radius*
0 $2 $3 $4 $5 $6 $7 $8 $9 X,Y pos of 4 corners*
0 Add a 4 corners polygon primitive as box body*
4,1,4,$2,$3,$4,$5,$6,$7,$8,$9,$2,$3,0*
0 Add four circle primitives for the rounded corners*
1,1,$1+$1,$2,$3*
1,1,$1+$1,$4,$5*
1,1,$1+$1,$6,$7*
1,1,$1+$1,$8,$9*
0 Add four rect primitives between the rounded corners*
20,1,$1+$1,$2,$3,$4,$5,0*
20,1,$1+$1,$4,$5,$6,$7,0*
20,1,$1+$1,$6,$7,$8,$9,0*
20,1,$1+$1,$8,$9,$2,$3,0*%
G04 Aperture macros list end*
%TA.AperFunction,ComponentPad*%
%ADD10C,1.700000*%
%TD*%
%TA.AperFunction,ComponentPad*%
%ADD11R,1.700000X1.700000*%
%TD*%
%TA.AperFunction,SMDPad,CuDef*%
%ADD12RoundRect,0.250000X-0.250000X-0.475000X0.250000X-0.475000X0.250000X0.475000X-0.250000X0.475000X0*%
%TD*%
%TA.AperFunction,ComponentPad*%
%ADD13RoundRect,1.500000X-1.500000X1.500000X-1.500000X-1.500000X1.500000X-1.500000X1.500000X1.500000X0*%
%TD*%
%TA.AperFunction,ComponentPad*%
%ADD14C,6.000000*%
%TD*%
%TA.AperFunction,SMDPad,CuDef*%
%ADD15C,1.000000*%
%TD*%
%TA.AperFunction,ComponentPad*%
%ADD16RoundRect,0.250001X0.949999X0.949999X-0.949999X0.949999X-0.949999X-0.949999X0.949999X-0.949999X0*%
%TD*%
%TA.AperFunction,ComponentPad*%
%ADD17C,2.400000*%
%TD*%
%TA.AperFunction,SMDPad,CuDef*%
%ADD18RoundRect,0.243750X-0.456250X0.243750X-0.456250X-0.243750X0.456250X-0.243750X0.456250X0.243750X0*%
%TD*%
%TA.AperFunction,SMDPad,CuDef*%
%ADD19RoundRect,0.243750X0.243750X0.456250X-0.243750X0.456250X-0.243750X-0.456250X0.243750X-0.456250X0*%
%TD*%
%TA.AperFunction,SMDPad,CuDef*%
%ADD20RoundRect,0.250000X0.475000X-0.250000X0.475000X0.250000X-0.475000X0.250000X-0.475000X-0.250000X0*%
%TD*%
%TA.AperFunction,SMDPad,CuDef*%
%ADD21RoundRect,0.250000X-0.475000X0.250000X-0.475000X-0.250000X0.475000X-0.250000X0.475000X0.250000X0*%
%TD*%
%TA.AperFunction,ComponentPad*%
%ADD22R,1.238000X1.238000*%
%TD*%
%TA.AperFunction,ComponentPad*%
%ADD23C,1.238000*%
%TD*%
%TA.AperFunction,ComponentPad*%
%ADD24C,1.308000*%
%TD*%
%TA.AperFunction,ComponentPad*%
%ADD25C,1.258000*%
%TD*%
%TA.AperFunction,ComponentPad*%
%ADD26C,1.208000*%
%TD*%
%TA.AperFunction,SMDPad,CuDef*%
%ADD27RoundRect,0.250000X0.262500X0.450000X-0.262500X0.450000X-0.262500X-0.450000X0.262500X-0.450000X0*%
%TD*%
%TA.AperFunction,SMDPad,CuDef*%
%ADD28RoundRect,0.250000X-0.262500X-0.450000X0.262500X-0.450000X0.262500X0.450000X-0.262500X0.450000X0*%
%TD*%
%TA.AperFunction,SMDPad,CuDef*%
%ADD29RoundRect,0.250000X-0.450000X0.262500X-0.450000X-0.262500X0.450000X-0.262500X0.450000X0.262500X0*%
%TD*%
%TA.AperFunction,ViaPad*%
%ADD30C,0.889000*%
%TD*%
%TA.AperFunction,ViaPad*%
%ADD31C,0.685800*%
%TD*%
%TA.AperFunction,Conductor*%
%ADD32C,0.381000*%
%TD*%
%TA.AperFunction,Conductor*%
%ADD33C,0.254000*%
%TD*%
%TA.AperFunction,Conductor*%
%ADD34C,0.508000*%
%TD*%
%TA.AperFunction,Conductor*%
%ADD35C,0.762000*%
%TD*%
G04 APERTURE END LIST*
D10*
%TO.P,LALRN1,3*%
%TO.N,GND*%
X184540000Y-135000000D03*
%TO.P,LALRN1,2*%
%TO.N,5V_EXT*%
X182000000Y-135000000D03*
D11*
%TO.P,LALRN1,1*%
%TO.N,Net-(U1-7_RX2_OUT1A)*%
X179460000Y-135000000D03*
%TD*%
D12*
%TO.P,C12,1*%
%TO.N,5V_EXT*%
X192550000Y-129400000D03*
%TO.P,C12,2*%
%TO.N,GND*%
X194450000Y-129400000D03*
%TD*%
%TO.P,C3,1*%
%TO.N,5V_EXT*%
X192550000Y-131500000D03*
%TO.P,C3,2*%
%TO.N,GND*%
X194450000Y-131500000D03*
%TD*%
%TO.P,C12,1*%
%TO.N,5V_EXT*%
X182050000Y-129900000D03*
%TO.P,C12,2*%
%TO.N,GND*%
X183950000Y-129900000D03*
%TD*%
%TO.P,C3,1*%
%TO.N,5V_EXT*%
X182050000Y-132000000D03*
%TO.P,C3,2*%
%TO.N,GND*%
X183950000Y-132000000D03*
%TD*%
D11*
%TO.P,RALRN1,1*%
%TO.N,Net-(U1-8_TX2_IN1)*%
X189920000Y-134500000D03*
D10*
%TO.P,RALRN1,2*%
%TO.N,5V_EXT*%
X192460000Y-134500000D03*
%TO.P,RALRN1,3*%
%TO.N,GND*%
X195000000Y-134500000D03*
%TD*%
D13*
%TO.P,5V_EXT1,1*%
%TO.N,N/C*%
X93500000Y-83300000D03*
D14*
%TO.P,5V_EXT1,2*%
X93500000Y-90500000D03*
%TD*%
D12*
%TO.P,C3,1*%
%TO.N,5V_EXT*%
X115700000Y-132200000D03*
%TO.P,C3,2*%
%TO.N,GND*%
X117600000Y-132200000D03*
%TD*%
%TO.P,C3,1*%
%TO.N,3V3 Rail*%
X157060000Y-86400000D03*
%TO.P,C3,2*%
%TO.N,GND*%
X158960000Y-86400000D03*
%TD*%
D15*
%TO.P,TP4,1,1*%
%TO.N,Net-(U1-1_TX1_CTX2_MISO1)*%
X130000000Y-122000000D03*
%TD*%
D11*
%TO.P,ESC2,1*%
%TO.N,Net-(U1-10_CS_MQSR)*%
X202000000Y-130000000D03*
D10*
%TO.P,ESC2,2*%
%TO.N,N/C*%
X204540000Y-130000000D03*
%TO.P,ESC2,3*%
%TO.N,unconnected-(ESC1-Pad3)*%
X207080000Y-130000000D03*
%TD*%
D16*
%TO.P,C11,1*%
%TO.N,5V_EXT*%
X101000000Y-122000000D03*
D17*
%TO.P,C11,2*%
%TO.N,GND*%
X96000000Y-122000000D03*
%TD*%
D15*
%TO.P,TP6,1,1*%
%TO.N,Net-(U1-3_LRCLK2)*%
X136000000Y-122000000D03*
%TD*%
D13*
%TO.P,5V_FC1,1*%
%TO.N,N/C*%
X92500000Y-100400000D03*
D14*
%TO.P,5V_FC1,2*%
X92500000Y-107600000D03*
%TD*%
D12*
%TO.P,C3,1*%
%TO.N,3V3 Rail*%
X130860000Y-82800000D03*
%TO.P,C3,2*%
%TO.N,GND*%
X132760000Y-82800000D03*
%TD*%
D11*
%TO.P,FLSvo1,1*%
%TO.N,Net-(U1-0_RX1_CRX2_CS1)*%
X101960000Y-135000000D03*
D10*
%TO.P,FLSvo1,2*%
%TO.N,5V_EXT*%
X104500000Y-135000000D03*
%TO.P,FLSvo1,3*%
%TO.N,GND*%
X107040000Y-135000000D03*
%TD*%
D12*
%TO.P,C12,1*%
%TO.N,5V_EXT*%
X137600000Y-130100000D03*
%TO.P,C12,2*%
%TO.N,GND*%
X139500000Y-130100000D03*
%TD*%
%TO.P,C12,1*%
%TO.N,5V_EXT*%
X171700000Y-130100000D03*
%TO.P,C12,2*%
%TO.N,GND*%
X173600000Y-130100000D03*
%TD*%
D15*
%TO.P,TP5,1,1*%
%TO.N,Net-(U1-2_OUT2)*%
X133000000Y-122000000D03*
%TD*%
D12*
%TO.P,C12,1*%
%TO.N,5V_EXT*%
X160100000Y-130100000D03*
%TO.P,C12,2*%
%TO.N,GND*%
X162000000Y-130100000D03*
%TD*%
D15*
%TO.P,TP17,1,1*%
%TO.N,/SCL*%
X156500000Y-95000000D03*
%TD*%
D18*
%TO.P,D3,1,K*%
%TO.N,3V3 Rail*%
X128000000Y-94125000D03*
%TO.P,D3,2,A*%
%TO.N,Net-(D3-A)*%
X128000000Y-96000000D03*
%TD*%
D15*
%TO.P,TP14,1,1*%
%TO.N,3V3 Rail*%
X125000000Y-99000000D03*
%TD*%
D19*
%TO.P,D2,1,K*%
%TO.N,GND*%
X103587500Y-113500000D03*
%TO.P,D2,2,A*%
%TO.N,Net-(D2-A)*%
X101712500Y-113500000D03*
%TD*%
D11*
%TO.P,TailSvo1,1*%
%TO.N,Net-(U1-4_BCLK2)*%
X145920000Y-135000000D03*
D10*
%TO.P,TailSvo1,2*%
%TO.N,5V_EXT*%
X148460000Y-135000000D03*
%TO.P,TailSvo1,3*%
%TO.N,GND*%
X151000000Y-135000000D03*
%TD*%
D12*
%TO.P,C3,1*%
%TO.N,5V_EXT*%
X104600000Y-132200000D03*
%TO.P,C3,2*%
%TO.N,GND*%
X106500000Y-132200000D03*
%TD*%
D19*
%TO.P,D1,1,K*%
%TO.N,3V3 Rail*%
X105875000Y-91000000D03*
%TO.P,D1,2,A*%
%TO.N,Net-(D1-A)*%
X104000000Y-91000000D03*
%TD*%
D20*
%TO.P,C7,1*%
%TO.N,/5V Rail_FC*%
X120000000Y-99500000D03*
%TO.P,C7,2*%
%TO.N,GND*%
X120000000Y-97600000D03*
%TD*%
D11*
%TO.P,MPU6050_Gyroscope1,1*%
%TO.N,3V3 Rail*%
X156920000Y-83500000D03*
D10*
%TO.P,MPU6050_Gyroscope1,2*%
X159460000Y-83500000D03*
%TO.P,MPU6050_Gyroscope1,3*%
%TO.N,/SCL*%
X162000000Y-83500000D03*
%TO.P,MPU6050_Gyroscope1,4*%
%TO.N,/SDA*%
X164540000Y-83500000D03*
%TO.P,MPU6050_Gyroscope1,5*%
%TO.N,unconnected-(MPU6050_Gyroscope1-Pad5)*%
X167080000Y-83500000D03*
%TO.P,MPU6050_Gyroscope1,6*%
%TO.N,unconnected-(MPU6050_Gyroscope1-Pad6)*%
X169620000Y-83500000D03*
%TO.P,MPU6050_Gyroscope1,7*%
%TO.N,unconnected-(MPU6050_Gyroscope1-Pad7)*%
X172160000Y-83500000D03*
%TO.P,MPU6050_Gyroscope1,8*%
%TO.N,unconnected-(MPU6050_Gyroscope1-Pad8)*%
X174700000Y-83500000D03*
%TD*%
D12*
%TO.P,C3,1*%
%TO.N,5V_EXT*%
X148600000Y-132200000D03*
%TO.P,C3,2*%
%TO.N,GND*%
X150500000Y-132200000D03*
%TD*%
%TO.P,C12,1*%
%TO.N,5V_EXT*%
X104600000Y-130100000D03*
%TO.P,C12,2*%
%TO.N,GND*%
X106500000Y-130100000D03*
%TD*%
D15*
%TO.P,TP9,1,1*%
%TO.N,Net-(U1-6_OUT1D)*%
X144000000Y-122000000D03*
%TD*%
D12*
%TO.P,C12,1*%
%TO.N,5V_EXT*%
X115700000Y-130100000D03*
%TO.P,C12,2*%
%TO.N,GND*%
X117600000Y-130100000D03*
%TD*%
D21*
%TO.P,C14,1*%
%TO.N,5V_EXT*%
X106400000Y-99500000D03*
%TO.P,C14,2*%
%TO.N,3V3 Rail*%
X106400000Y-101400000D03*
%TD*%
D12*
%TO.P,C3,1*%
%TO.N,3V3 Rail*%
X136000000Y-89800000D03*
%TO.P,C3,2*%
%TO.N,GND*%
X137900000Y-89800000D03*
%TD*%
D11*
%TO.P,ESC3,1*%
%TO.N,Net-(U1-11_MOSI_CTX1)*%
X202000000Y-125000000D03*
D10*
%TO.P,ESC3,2*%
%TO.N,N/C*%
X204540000Y-125000000D03*
%TO.P,ESC3,3*%
%TO.N,unconnected-(ESC2-Pad3)*%
X207080000Y-125000000D03*
%TD*%
D15*
%TO.P,TP8,1,1*%
%TO.N,Net-(U1-5_IN2)*%
X142000000Y-122000000D03*
%TD*%
D11*
%TO.P,FRSvo1,1*%
%TO.N,Net-(U1-1_TX1_CTX2_MISO1)*%
X112920000Y-135000000D03*
D10*
%TO.P,FRSvo1,2*%
%TO.N,5V_EXT*%
X115460000Y-135000000D03*
%TO.P,FRSvo1,3*%
%TO.N,GND*%
X118000000Y-135000000D03*
%TD*%
D11*
%TO.P,LRDVR1,1*%
%TO.N,Net-(U1-5_IN2)*%
X157500000Y-135000000D03*
D10*
%TO.P,LRDVR1,2*%
%TO.N,5V_EXT*%
X160040000Y-135000000D03*
%TO.P,LRDVR1,3*%
%TO.N,GND*%
X162580000Y-135000000D03*
%TD*%
D22*
%TO.P,MS4525DO_Speed_Sensor1,1,P1*%
%TO.N,unconnected-(MS4525DO_Speed_Sensor1-P1-Pad1)*%
X110000000Y-84000000D03*
D23*
%TO.P,MS4525DO_Speed_Sensor1,2,P2*%
%TO.N,3V3 Rail*%
X110000000Y-86500000D03*
%TO.P,MS4525DO_Speed_Sensor1,3,P3*%
%TO.N,unconnected-(MS4525DO_Speed_Sensor1-P3-Pad3)*%
X110000000Y-89000000D03*
%TO.P,MS4525DO_Speed_Sensor1,4,P4*%
%TO.N,3V3 Rail*%
X110000000Y-91500000D03*
%TO.P,MS4525DO_Speed_Sensor1,5,P5*%
%TO.N,unconnected-(MS4525DO_Speed_Sensor1-P5-Pad5)*%
X122700000Y-91500000D03*
%TO.P,MS4525DO_Speed_Sensor1,6,P6*%
%TO.N,/SCL*%
X122700000Y-89000000D03*
%TO.P,MS4525DO_Speed_Sensor1,7,P7*%
%TO.N,unconnected-(MS4525DO_Speed_Sensor1-P7-Pad7)*%
X122700000Y-86500000D03*
%TO.P,MS4525DO_Speed_Sensor1,8,P8*%
%TO.N,/SDA*%
X122700000Y-84000000D03*
%TD*%
D24*
%TO.P,U1,0*%
%TO.N,N/C*%
X121820000Y-117540000D03*
%TO.P,U1,1,GND*%
%TO.N,3V3 Rail*%
X124360000Y-117540000D03*
%TO.P,U1,2,0_RX1_CRX2_CS1*%
%TO.N,Net-(U1-0_RX1_CRX2_CS1)*%
X126900000Y-117540000D03*
%TO.P,U1,3,1_TX1_CTX2_MISO1*%
%TO.N,Net-(U1-1_TX1_CTX2_MISO1)*%
X129440000Y-117540000D03*
%TO.P,U1,3.3V_1*%
%TO.N,N/C*%
X154840000Y-117540000D03*
%TO.P,U1,3.3V_2*%
X124360000Y-102300000D03*
%TO.P,U1,3.3V_3*%
X165000000Y-112460000D03*
%TO.P,U1,4,2_OUT2*%
%TO.N,Net-(U1-2_OUT2)*%
X131980000Y-117540000D03*
%TO.P,U1,5,3_LRCLK2*%
%TO.N,Net-(U1-3_LRCLK2)*%
X134520000Y-117540000D03*
D25*
%TO.P,U1,5V*%
%TO.N,N/C*%
X125630000Y-114490000D03*
D24*
%TO.P,U1,6,4_BCLK2*%
%TO.N,Net-(U1-4_BCLK2)*%
X137060000Y-117540000D03*
%TO.P,U1,7,5_IN2*%
%TO.N,Net-(U1-5_IN2)*%
X139600000Y-117540000D03*
%TO.P,U1,8,6_OUT1D*%
%TO.N,Net-(U1-6_OUT1D)*%
X142140000Y-117540000D03*
%TO.P,U1,9,7_RX2_OUT1A*%
%TO.N,Net-(U1-7_RX2_OUT1A)*%
X144680000Y-117540000D03*
%TO.P,U1,10,8_TX2_IN1*%
%TO.N,Net-(U1-8_TX2_IN1)*%
X147220000Y-117540000D03*
%TO.P,U1,11,9_OUT1C*%
%TO.N,Net-(U1-9_OUT1C)*%
X149760000Y-117540000D03*
%TO.P,U1,12,10_CS_MQSR*%
%TO.N,Net-(U1-10_CS_MQSR)*%
X152300000Y-117540000D03*
%TO.P,U1,13,11_MOSI_CTX1*%
%TO.N,Net-(U1-11_MOSI_CTX1)*%
X152300000Y-102300000D03*
%TO.P,U1,14,12_MISO_MQSL*%
%TO.N,unconnected-(U1-12_MISO_MQSL-Pad14)*%
X149760000Y-102300000D03*
%TO.P,U1,15,3V3*%
%TO.N,unconnected-(U1-3V3-Pad15)*%
X147220000Y-102300000D03*
%TO.P,U1,16,24_A10_TX6_SCL2*%
%TO.N,unconnected-(U1-24_A10_TX6_SCL2-Pad16)*%
X144680000Y-102300000D03*
%TO.P,U1,17,25_A11_RX6_SDA2*%
%TO.N,unconnected-(U1-25_A11_RX6_SDA2-Pad17)*%
X142140000Y-102300000D03*
%TO.P,U1,18,26_A12_MOSI1*%
%TO.N,unconnected-(U1-26_A12_MOSI1-Pad18)*%
X139600000Y-102300000D03*
%TO.P,U1,19,27_A13_SCK1*%
%TO.N,unconnected-(U1-27_A13_SCK1-Pad19)*%
X137060000Y-102300000D03*
%TO.P,U1,20,28_RX7*%
%TO.N,Net-(U1-41_A17)*%
X134520000Y-102300000D03*
%TO.P,U1,21,29_TX7*%
%TO.N,unconnected-(U1-29_TX7-Pad21)*%
X131980000Y-102300000D03*
%TO.P,U1,22,30_CRX3*%
%TO.N,unconnected-(U1-30_CRX3-Pad22)*%
X129440000Y-102300000D03*
%TO.P,U1,23,31_CTX3*%
%TO.N,unconnected-(U1-31_CTX3-Pad23)*%
X126900000Y-102300000D03*
%TO.P,U1,24,32_OUT1B*%
%TO.N,Net-(U1-11_MOSI_CTX1)*%
X157380000Y-117540000D03*
%TO.P,U1,25,33_MCLK2*%
%TO.N,unconnected-(U1-33_MCLK2-Pad25)*%
X159920000Y-117540000D03*
%TO.P,U1,26,34_RX8*%
%TO.N,unconnected-(U1-34_RX8-Pad26)*%
X162460000Y-117540000D03*
%TO.P,U1,27,35_TX8*%
%TO.N,unconnected-(U1-35_TX8-Pad27)*%
X165000000Y-117540000D03*
%TO.P,U1,28,36_CS*%
%TO.N,unconnected-(U1-36_CS-Pad28)*%
X167540000Y-117540000D03*
%TO.P,U1,29,37_CS*%
%TO.N,unconnected-(U1-37_CS-Pad29)*%
X170080000Y-117540000D03*
%TO.P,U1,30,38_CS1_IN1*%
%TO.N,unconnected-(U1-38_CS1_IN1-Pad30)*%
X172620000Y-117540000D03*
%TO.P,U1,31,39_MISO1_OUT1A*%
%TO.N,unconnected-(U1-39_MISO1_OUT1A-Pad31)*%
X175160000Y-117540000D03*
%TO.P,U1,32,40_A16*%
%TO.N,unconnected-(U1-40_A16-Pad32)*%
X177700000Y-117540000D03*
%TO.P,U1,33,41_A17*%
%TO.N,Net-(U1-41_A17)*%
X177700000Y-102300000D03*
%TO.P,U1,34,GND*%
%TO.N,3V3 Rail*%
X175160000Y-102300000D03*
%TO.P,U1,35,13_SCK_LED*%
%TO.N,unconnected-(U1-13_SCK_LED-Pad35)*%
X172620000Y-102300000D03*
%TO.P,U1,36,14_A0_TX3_SPDIF_OUT*%
%TO.N,unconnected-(U1-14_A0_TX3_SPDIF_OUT-Pad36)*%
X170080000Y-102300000D03*
%TO.P,U1,37,15_A1_RX3_SPDIF_IN*%
%TO.N,unconnected-(U1-15_A1_RX3_SPDIF_IN-Pad37)*%
X167540000Y-102300000D03*
%TO.P,U1,38,16_A2_RX4_SCL1*%
%TO.N,unconnected-(U1-16_A2_RX4_SCL1-Pad38)*%
X165000000Y-102300000D03*
%TO.P,U1,39,17_A3_TX4_SDA1*%
%TO.N,unconnected-(U1-17_A3_TX4_SDA1-Pad39)*%
X162460000Y-102300000D03*
%TO.P,U1,40,18_A4_SDA*%
%TO.N,/SDA*%
X159920000Y-102300000D03*
%TO.P,U1,41,19_A5_SCL*%
%TO.N,/SCL*%
X157380000Y-102300000D03*
D25*
%TO.P,U1,D+*%
%TO.N,N/C*%
X130710000Y-114490000D03*
%TO.P,U1,D-*%
X128170000Y-114490000D03*
D24*
%TO.P,U1,GND1*%
X119280000Y-117540000D03*
%TO.P,U1,GND2*%
X154840000Y-102300000D03*
%TO.P,U1,GND3*%
X121820000Y-102300000D03*
%TO.P,U1,GND4*%
X165000000Y-109920000D03*
D26*
%TO.P,U1,GND5*%
X134250000Y-106750000D03*
%TO.P,U1,LED*%
X132250000Y-106750000D03*
D24*
%TO.P,U1,ON/OFF*%
X165000000Y-104840000D03*
%TO.P,U1,PROGRAM*%
X165000000Y-107380000D03*
D26*
%TO.P,U1,R+*%
X132250000Y-104750000D03*
%TO.P,U1,R-*%
X134250000Y-104750000D03*
%TO.P,U1,T+*%
X134250000Y-108750000D03*
%TO.P,U1,T-*%
X132250000Y-108750000D03*
D25*
%TO.P,U1,USB_GND1*%
X133250000Y-114490000D03*
%TO.P,U1,USB_GND2*%
X135790000Y-114490000D03*
D24*
%TO.P,U1,VBAT*%
X165000000Y-115000000D03*
%TO.P,U1,VIN*%
X119280000Y-102300000D03*
%TO.P,U1,VUSB*%
X121820000Y-104840000D03*
%TD*%
D15*
%TO.P,TP3,1,1*%
%TO.N,Net-(U1-0_RX1_CRX2_CS1)*%
X126000000Y-122000000D03*
%TD*%
D12*
%TO.P,C12,1*%
%TO.N,5V_EXT*%
X148600000Y-130100000D03*
%TO.P,C12,2*%
%TO.N,GND*%
X150500000Y-130100000D03*
%TD*%
%TO.P,C3,1*%
%TO.N,5V_EXT*%
X137600000Y-132200000D03*
%TO.P,C3,2*%
%TO.N,GND*%
X139500000Y-132200000D03*
%TD*%
D21*
%TO.P,C3,1*%
%TO.N,3V3 Rail*%
X124650000Y-89300000D03*
%TO.P,C3,2*%
%TO.N,GND*%
X124650000Y-91200000D03*
%TD*%
D15*
%TO.P,TP13,1,1*%
%TO.N,3V3 Rail*%
X104000000Y-84000000D03*
%TD*%
D12*
%TO.P,C12,1*%
%TO.N,5V_EXT*%
X127100000Y-130100000D03*
%TO.P,C12,2*%
%TO.N,GND*%
X129000000Y-130100000D03*
%TD*%
D27*
%TO.P,R2,1*%
%TO.N,Net-(D2-A)*%
X99412500Y-113500000D03*
%TO.P,R2,2*%
%TO.N,5V_EXT*%
X97587500Y-113500000D03*
%TD*%
D21*
%TO.P,C7,1*%
%TO.N,5V_EXT*%
X109200000Y-99500000D03*
%TO.P,C7,2*%
%TO.N,3V3 Rail*%
X109200000Y-101400000D03*
%TD*%
D12*
%TO.P,C3,1*%
%TO.N,5V_EXT*%
X127100000Y-132200000D03*
%TO.P,C3,2*%
%TO.N,GND*%
X129000000Y-132200000D03*
%TD*%
D20*
%TO.P,C14,1*%
%TO.N,/5V Rail_FC*%
X117000000Y-98950000D03*
%TO.P,C14,2*%
%TO.N,GND*%
X117000000Y-97050000D03*
%TD*%
D15*
%TO.P,TP15,1,1*%
%TO.N,3V3 Rail*%
X150000000Y-88000000D03*
%TD*%
D12*
%TO.P,C3,1*%
%TO.N,5V_EXT*%
X160100000Y-132200000D03*
%TO.P,C3,2*%
%TO.N,GND*%
X162000000Y-132200000D03*
%TD*%
D28*
%TO.P,R1,1*%
%TO.N,5V_FC*%
X100335000Y-91000000D03*
%TO.P,R1,2*%
%TO.N,Net-(D1-A)*%
X102160000Y-91000000D03*
%TD*%
D11*
%TO.P,Radio_Receiver1,1*%
%TO.N,Net-(U1-41_A17)*%
X112000000Y-104540000D03*
D10*
%TO.P,Radio_Receiver1,2*%
%TO.N,3V3 Rail*%
X112000000Y-102000000D03*
%TO.P,Radio_Receiver1,3*%
%TO.N,5V_FC*%
X112000000Y-99460000D03*
%TD*%
D27*
%TO.P,R4,1*%
%TO.N,/SCL*%
X156500000Y-99800000D03*
%TO.P,R4,2*%
%TO.N,3V3 Rail*%
X154675000Y-99800000D03*
%TD*%
D11*
%TO.P,BRSvo1,1*%
%TO.N,Net-(U1-3_LRCLK2)*%
X134920000Y-135000000D03*
D10*
%TO.P,BRSvo1,2*%
%TO.N,5V_EXT*%
X137460000Y-135000000D03*
%TO.P,BRSvo1,3*%
%TO.N,GND*%
X140000000Y-135000000D03*
%TD*%
D12*
%TO.P,C3,1*%
%TO.N,5V_EXT*%
X171700000Y-132200000D03*
%TO.P,C3,2*%
%TO.N,GND*%
X173600000Y-132200000D03*
%TD*%
D15*
%TO.P,TP10,1,1*%
%TO.N,Net-(U1-9_OUT1C)*%
X154000000Y-121500000D03*
%TD*%
D29*
%TO.P,R3,1*%
%TO.N,Net-(D3-A)*%
X128000000Y-98087500D03*
%TO.P,R3,2*%
%TO.N,3V3 Rail*%
X128000000Y-99912500D03*
%TD*%
D15*
%TO.P,TP11,1,1*%
%TO.N,Net-(U1-10_CS_MQSR)*%
X157500000Y-120500000D03*
%TD*%
D11*
%TO.P,GY-273_Magnometer1,1*%
%TO.N,3V3 Rail*%
X130380000Y-80000000D03*
D10*
%TO.P,GY-273_Magnometer1,2*%
X132920000Y-80000000D03*
%TO.P,GY-273_Magnometer1,3*%
%TO.N,/SCL*%
X135460000Y-80000000D03*
%TO.P,GY-273_Magnometer1,4*%
%TO.N,/SDA*%
X138000000Y-80000000D03*
%TO.P,GY-273_Magnometer1,5*%
%TO.N,unconnected-(GY-273_Magnometer1-Pad5)*%
X140540000Y-80000000D03*
%TD*%
D11*
%TO.P,BLSvo1,1*%
%TO.N,Net-(U1-2_OUT2)*%
X124460000Y-135000000D03*
D10*
%TO.P,BLSvo1,2*%
%TO.N,5V_EXT*%
X127000000Y-135000000D03*
%TO.P,BLSvo1,3*%
%TO.N,GND*%
X129540000Y-135000000D03*
%TD*%
D15*
%TO.P,TP2,1,1*%
%TO.N,/SDA*%
X162500000Y-93500000D03*
%TD*%
D28*
%TO.P,R5,1*%
%TO.N,/SDA*%
X160800000Y-99800000D03*
%TO.P,R5,2*%
%TO.N,3V3 Rail*%
X162625000Y-99800000D03*
%TD*%
D11*
%TO.P,GY-NEO6MV2_GPS_Module1,1*%
%TO.N,3V3 Rail*%
X136220000Y-92570000D03*
D10*
%TO.P,GY-NEO6MV2_GPS_Module1,2*%
%TO.N,/SCL*%
X138760000Y-92570000D03*
%TO.P,GY-NEO6MV2_GPS_Module1,3*%
%TO.N,/SDA*%
X141300000Y-92570000D03*
%TO.P,GY-NEO6MV2_GPS_Module1,4*%
%TO.N,3V3 Rail*%
X143840000Y-92570000D03*
%TD*%
D11*
%TO.P,ESC1,1*%
%TO.N,Net-(U1-9_OUT1C)*%
X202000000Y-135000000D03*
D10*
%TO.P,ESC1,2*%
%TO.N,N/C*%
X204540000Y-135000000D03*
%TO.P,ESC1,3*%
%TO.N,unconnected-(ESC3-Pad3)*%
X207080000Y-135000000D03*
%TD*%
D11*
%TO.P,RRDVR1,1*%
%TO.N,Net-(U1-6_OUT1D)*%
X169000000Y-135000000D03*
D10*
%TO.P,RRDVR1,2*%
%TO.N,5V_EXT*%
X171540000Y-135000000D03*
%TO.P,RRDVR1,3*%
%TO.N,GND*%
X174080000Y-135000000D03*
%TD*%
D15*
%TO.P,TP7,1,1*%
%TO.N,Net-(U1-4_BCLK2)*%
X139000000Y-122000000D03*
%TD*%
D30*
%TO.N,5V_EXT*%
X192550000Y-130450000D03*
%TO.N,GND*%
X194450000Y-130400000D03*
%TO.N,5V_EXT*%
X182050000Y-130950000D03*
%TO.N,GND*%
X183950000Y-130900000D03*
%TO.N,3V3 Rail*%
X132760000Y-84300000D03*
%TO.N,GND*%
X162000000Y-131100000D03*
X129000000Y-131100000D03*
D31*
%TO.N,3V3 Rail*%
X104000000Y-84000000D03*
D30*
X137900000Y-88300000D03*
%TO.N,GND*%
X115900000Y-97050000D03*
X106500000Y-131100000D03*
D31*
X105000000Y-113500000D03*
D30*
X118850000Y-97050000D03*
%TO.N,3V3 Rail*%
X158960000Y-87900000D03*
%TO.N,GND*%
X126150000Y-91200000D03*
X150500000Y-131100000D03*
%TO.N,3V3 Rail*%
X128000000Y-92500000D03*
%TO.N,GND*%
X173600000Y-131100000D03*
%TO.N,3V3 Rail*%
X107447500Y-91000000D03*
%TO.N,GND*%
X139500000Y-131100000D03*
D31*
%TO.N,3V3 Rail*%
X108100000Y-101400000D03*
X107500000Y-101500000D03*
D30*
%TO.N,GND*%
X117600000Y-131100000D03*
D31*
%TO.N,/SDA*%
X162500000Y-93500000D03*
X159920000Y-99900000D03*
%TO.N,/SCL*%
X156500000Y-95000000D03*
X157380000Y-99900000D03*
%TO.N,5V_FC*%
X108000000Y-99500000D03*
D30*
X120000000Y-100400000D03*
X115750000Y-99000000D03*
X99000000Y-93500000D03*
D31*
X107400000Y-99460000D03*
D30*
%TO.N,5V_EXT*%
X171700000Y-131150000D03*
X137600000Y-131150000D03*
X95725000Y-113600000D03*
X104600000Y-131150000D03*
X160100000Y-131150000D03*
X115700000Y-131150000D03*
X127100000Y-131150000D03*
X148600000Y-131150000D03*
%TO.N,3V3 Rail*%
X136000000Y-88400000D03*
X157060000Y-87900000D03*
D31*
X163400000Y-99800000D03*
X140500000Y-85040000D03*
X153900000Y-99800000D03*
D30*
X150000000Y-88000000D03*
X130860000Y-84300000D03*
X126150000Y-89300000D03*
D31*
X125000000Y-99000000D03*
D30*
X129000000Y-100100000D03*
%TD*%
D32*
%TO.N,Net-(U1-11_MOSI_CTX1)*%
X199000000Y-125000000D02*
X202000000Y-125000000D01*
X193500000Y-119500000D02*
X199000000Y-125000000D01*
X159340000Y-119500000D02*
X193500000Y-119500000D01*
X157380000Y-117540000D02*
X159340000Y-119500000D01*
%TO.N,Net-(U1-9_OUT1C)*%
X202000000Y-133500000D02*
X202000000Y-135000000D01*
X154220000Y-122000000D02*
X190500000Y-122000000D01*
X149760000Y-117540000D02*
X154220000Y-122000000D01*
X190500000Y-122000000D02*
X202000000Y-133500000D01*
%TO.N,Net-(U1-10_CS_MQSR)*%
X154220000Y-119460000D02*
X152300000Y-117540000D01*
X154220000Y-119720000D02*
X154220000Y-119460000D01*
X155000000Y-120500000D02*
X154220000Y-119720000D01*
X192500000Y-120500000D02*
X155000000Y-120500000D01*
X202000000Y-130000000D02*
X192500000Y-120500000D01*
D33*
%TO.N,Net-(U1-8_TX2_IN1)*%
X150500000Y-120820000D02*
X147220000Y-117540000D01*
X150500000Y-121000000D02*
X150500000Y-120820000D01*
X152500000Y-123000000D02*
X150500000Y-121000000D01*
X179524000Y-123000000D02*
X152500000Y-123000000D01*
X189920000Y-134500000D02*
X189920000Y-133396000D01*
X189920000Y-133396000D02*
X179524000Y-123000000D01*
%TO.N,Net-(U1-7_RX2_OUT1A)*%
X179460000Y-129960000D02*
X179460000Y-135000000D01*
X173500000Y-124000000D02*
X179460000Y-129960000D01*
X151140000Y-124000000D02*
X173500000Y-124000000D01*
X144680000Y-117540000D02*
X151140000Y-124000000D01*
D34*
%TO.N,GND*%
X106500000Y-132200000D02*
X106500000Y-130000000D01*
X150500000Y-132200000D02*
X150500000Y-130000000D01*
D35*
X158960000Y-86400000D02*
X158960000Y-84000000D01*
%TO.N,3V3 Rail*%
X128000000Y-94125000D02*
X128000000Y-92500000D01*
D34*
X105875000Y-91000000D02*
X107447500Y-91000000D01*
D35*
%TO.N,GND*%
X124650000Y-91200000D02*
X126150000Y-91200000D01*
X137900000Y-89800000D02*
X137900000Y-88300000D01*
D34*
%TO.N,3V3 Rail*%
X107500000Y-101500000D02*
X107400000Y-101400000D01*
%TO.N,GND*%
X129000000Y-132200000D02*
X129000000Y-130000000D01*
%TO.N,3V3 Rail*%
X107400000Y-101400000D02*
X106000000Y-101400000D01*
%TO.N,GND*%
X173600000Y-132200000D02*
X173600000Y-130000000D01*
X117600000Y-132200000D02*
X117600000Y-130000000D01*
D35*
X141070000Y-89800000D02*
X143840000Y-92570000D01*
X132760000Y-80160000D02*
X132920000Y-80000000D01*
X118850000Y-97050000D02*
X119450000Y-97050000D01*
X137900000Y-89800000D02*
X141070000Y-89800000D01*
D34*
X124350000Y-91500000D02*
X124650000Y-91200000D01*
%TO.N,3V3 Rail*%
X108100000Y-101400000D02*
X109200000Y-101400000D01*
D35*
%TO.N,GND*%
X115900000Y-97050000D02*
X117000000Y-97050000D01*
X132760000Y-82800000D02*
X132760000Y-84300000D01*
D34*
X122700000Y-91500000D02*
X124350000Y-91500000D01*
X162000000Y-132200000D02*
X162000000Y-130000000D01*
D32*
X103587500Y-113500000D02*
X105000000Y-113500000D01*
D35*
X132760000Y-82800000D02*
X132760000Y-80160000D01*
X158960000Y-84000000D02*
X159460000Y-83500000D01*
X119450000Y-97050000D02*
X120000000Y-97600000D01*
D34*
X139500000Y-132200000D02*
X139500000Y-130000000D01*
D35*
X158960000Y-86400000D02*
X158960000Y-87900000D01*
D33*
%TO.N,/SDA*%
X160700000Y-99900000D02*
X160800000Y-99800000D01*
X159920000Y-99900000D02*
X160700000Y-99900000D01*
%TO.N,/SCL*%
X156600000Y-99900000D02*
X156500000Y-99800000D01*
X157380000Y-99900000D02*
X156600000Y-99900000D01*
D32*
%TO.N,Net-(D1-A)*%
X102295000Y-91000000D02*
X104000000Y-91000000D01*
%TO.N,Net-(D2-A)*%
X99412500Y-113500000D02*
X101712500Y-113500000D01*
%TO.N,Net-(D3-A)*%
X128000000Y-98087500D02*
X128000000Y-96000000D01*
D33*
%TO.N,Net-(U1-0_RX1_CRX2_CS1)*%
X126000000Y-122000000D02*
X114583894Y-122000000D01*
X126000000Y-118440000D02*
X126000000Y-122000000D01*
X111000000Y-125583894D02*
X105666106Y-125583894D01*
X103750000Y-127500000D02*
X103750000Y-133826106D01*
X114583894Y-122000000D02*
X111000000Y-125583894D01*
X102576106Y-135000000D02*
X101960000Y-135000000D01*
X105666106Y-125583894D02*
X103750000Y-127500000D01*
X103750000Y-133826106D02*
X102576106Y-135000000D01*
X126900000Y-117540000D02*
X126000000Y-118440000D01*
%TO.N,Net-(U1-1_TX1_CTX2_MISO1)*%
X114300000Y-133620000D02*
X112920000Y-135000000D01*
X129683894Y-122000000D02*
X127983894Y-123700000D01*
X114300000Y-127200000D02*
X114300000Y-133620000D01*
X127983894Y-123700000D02*
X117800000Y-123700000D01*
X129440000Y-117540000D02*
X129440000Y-121440000D01*
X130000000Y-122000000D02*
X129683894Y-122000000D01*
X117800000Y-123700000D02*
X114300000Y-127200000D01*
X129440000Y-121440000D02*
X130000000Y-122000000D01*
%TO.N,Net-(U1-2_OUT2)*%
X133000000Y-122000000D02*
X132200000Y-122000000D01*
X124460000Y-135000000D02*
X124400000Y-134940000D01*
X124460000Y-129740000D02*
X124460000Y-135000000D01*
X132200000Y-122000000D02*
X124460000Y-129740000D01*
X131980000Y-117540000D02*
X133000000Y-118560000D01*
X133000000Y-118560000D02*
X133000000Y-122000000D01*
%TO.N,Net-(U1-3_LRCLK2)*%
X134520000Y-117540000D02*
X136000000Y-119020000D01*
X134920000Y-124080000D02*
X134920000Y-135000000D01*
X136000000Y-123000000D02*
X134920000Y-124080000D01*
X136000000Y-119020000D02*
X136000000Y-122000000D01*
X136000000Y-122000000D02*
X136000000Y-123000000D01*
%TO.N,Net-(U1-4_BCLK2)*%
X139000000Y-122000000D02*
X139000000Y-119480000D01*
X142200000Y-125200000D02*
X139000000Y-122000000D01*
X139000000Y-119480000D02*
X137060000Y-117540000D01*
X145920000Y-135000000D02*
X142200000Y-131280000D01*
X142200000Y-131280000D02*
X142200000Y-125200000D01*
%TO.N,Net-(U1-5_IN2)*%
X142000000Y-122000000D02*
X142000000Y-119940000D01*
X146500000Y-126500000D02*
X151000000Y-126500000D01*
X142000000Y-119940000D02*
X139600000Y-117540000D01*
X151000000Y-126500000D02*
X157500000Y-133000000D01*
X157500000Y-133000000D02*
X157500000Y-135000000D01*
X142000000Y-122000000D02*
X146500000Y-126500000D01*
%TO.N,Net-(U1-6_OUT1D)*%
X144000000Y-119400000D02*
X144000000Y-122000000D01*
X144000000Y-122000000D02*
X146950000Y-124950000D01*
X142140000Y-117540000D02*
X144000000Y-119400000D01*
X146950000Y-124950000D02*
X160850000Y-124950000D01*
X164400000Y-128500000D02*
X164400000Y-132313053D01*
X164400000Y-132313053D02*
X167086947Y-135000000D01*
X160850000Y-124950000D02*
X164400000Y-128500000D01*
X167086947Y-135000000D02*
X169000000Y-135000000D01*
D32*
%TO.N,Net-(U1-41_A17)*%
X133070000Y-103750000D02*
X112790000Y-103750000D01*
X112790000Y-103750000D02*
X112000000Y-104540000D01*
X134520000Y-102300000D02*
X133070000Y-103750000D01*
D34*
%TO.N,/5V Rail_FC*%
X106000000Y-99500000D02*
X107360000Y-99500000D01*
X99000000Y-92335000D02*
X100335000Y-91000000D01*
D35*
X115800000Y-98950000D02*
X115750000Y-99000000D01*
D34*
X109200000Y-99500000D02*
X108000000Y-99500000D01*
X99000000Y-93500000D02*
X99000000Y-92335000D01*
D35*
X117000000Y-98950000D02*
X115800000Y-98950000D01*
D34*
X100247500Y-91000000D02*
X100335000Y-91000000D01*
X99947500Y-91300000D02*
X100247500Y-91000000D01*
X107360000Y-99500000D02*
X107400000Y-99460000D01*
D35*
X120000000Y-100400000D02*
X120000000Y-99500000D01*
D34*
%TO.N,5V_EXT*%
X95825000Y-113500000D02*
X97587500Y-113500000D01*
X127100000Y-130100000D02*
X127100000Y-129900000D01*
X137600000Y-130100000D02*
X137600000Y-129900000D01*
X171700000Y-132200000D02*
X171700000Y-130100000D01*
X160100000Y-130100000D02*
X160100000Y-129900000D01*
X115700000Y-130100000D02*
X115700000Y-129900000D01*
X104600000Y-130100000D02*
X104600000Y-129900000D01*
X171700000Y-130100000D02*
X171700000Y-129900000D01*
X137600000Y-132200000D02*
X137600000Y-130100000D01*
X115700000Y-132200000D02*
X115700000Y-130100000D01*
X148600000Y-130100000D02*
X148600000Y-129900000D01*
X148600000Y-132200000D02*
X148600000Y-130100000D01*
X104600000Y-132200000D02*
X104600000Y-130100000D01*
X127100000Y-132200000D02*
X127100000Y-130100000D01*
X160100000Y-132200000D02*
X160100000Y-130100000D01*
D35*
%TO.N,3V3 Rail*%
X130860000Y-82800000D02*
X130860000Y-84300000D01*
X157060000Y-83640000D02*
X156920000Y-83500000D01*
D34*
X136220000Y-92570000D02*
X136220000Y-90020000D01*
D35*
X130860000Y-80480000D02*
X130380000Y-80000000D01*
D34*
X124350000Y-89000000D02*
X124650000Y-89300000D01*
D35*
X157060000Y-86400000D02*
X157060000Y-83640000D01*
D34*
X154675000Y-99800000D02*
X153900000Y-99800000D01*
X136220000Y-90020000D02*
X136000000Y-89800000D01*
D35*
X128000000Y-99912500D02*
X128812500Y-99912500D01*
D34*
X122700000Y-89000000D02*
X124350000Y-89000000D01*
D35*
X124650000Y-89300000D02*
X126150000Y-89300000D01*
X128812500Y-99912500D02*
X129000000Y-100100000D01*
X130860000Y-82800000D02*
X130860000Y-80480000D01*
X136000000Y-88400000D02*
X136000000Y-89800000D01*
D34*
X162725000Y-99900000D02*
X162625000Y-99800000D01*
D35*
X157060000Y-86400000D02*
X157060000Y-87900000D01*
D34*
X162625000Y-99800000D02*
X163400000Y-99800000D01*
%TD*%
M02*
